<mxfile host="65bd71144e">
    <diagram id="customDiagram2" name="Page-1">
        <mxGraphModel dx="671" dy="563" grid="1" gridSize="10" guides="1" tooltips="1" connect="1" arrows="1" fold="1" page="1" pageScale="1" pageWidth="1700" pageHeight="1100" math="0" shadow="0">
            <root>
                <mxCell id="0"/>
                <mxCell id="1" parent="0"/>
                <mxCell id="eeMSQqvgx5vnNNO9UlVY-233" style="edgeStyle=orthogonalEdgeStyle;rounded=0;orthogonalLoop=1;jettySize=auto;html=1;exitX=0;exitY=0.5;exitDx=0;exitDy=0;entryX=0;entryY=0.75;entryDx=0;entryDy=0;startArrow=none;startFill=0;" edge="1" parent="1" source="2" target="eeMSQqvgx5vnNNO9UlVY-211">
                    <mxGeometry relative="1" as="geometry"/>
                </mxCell>
                <mxCell id="2" value="Design Profession" style="rounded=1;whiteSpace=wrap;html=1;" parent="1" vertex="1">
                    <mxGeometry x="300" y="50" width="140" height="60" as="geometry"/>
                </mxCell>
                <mxCell id="eeMSQqvgx5vnNNO9UlVY-30" style="edgeStyle=orthogonalEdgeStyle;rounded=0;orthogonalLoop=1;jettySize=auto;html=1;entryX=0.5;entryY=0;entryDx=0;entryDy=0;" edge="1" parent="1" source="3" target="eeMSQqvgx5vnNNO9UlVY-31">
                    <mxGeometry relative="1" as="geometry">
                        <mxPoint x="159.9999999999999" y="440" as="targetPoint"/>
                    </mxGeometry>
                </mxCell>
                <mxCell id="3" value="Architecture" style="rounded=1;whiteSpace=wrap;html=1;" vertex="1" parent="1">
                    <mxGeometry x="100" y="190" width="120" height="60" as="geometry"/>
                </mxCell>
                <mxCell id="eeMSQqvgx5vnNNO9UlVY-27" style="edgeStyle=orthogonalEdgeStyle;rounded=0;orthogonalLoop=1;jettySize=auto;html=1;exitX=0.5;exitY=1;exitDx=0;exitDy=0;entryX=0.5;entryY=0;entryDx=0;entryDy=0;" edge="1" parent="1" source="4" target="eeMSQqvgx5vnNNO9UlVY-24">
                    <mxGeometry relative="1" as="geometry"/>
                </mxCell>
                <mxCell id="eeMSQqvgx5vnNNO9UlVY-231" value="includes" style="edgeLabel;html=1;align=center;verticalAlign=middle;resizable=0;points=[];" vertex="1" connectable="0" parent="eeMSQqvgx5vnNNO9UlVY-27">
                    <mxGeometry x="0.0917" y="-1" relative="1" as="geometry">
                        <mxPoint as="offset"/>
                    </mxGeometry>
                </mxCell>
                <mxCell id="eeMSQqvgx5vnNNO9UlVY-28" style="edgeStyle=orthogonalEdgeStyle;rounded=0;orthogonalLoop=1;jettySize=auto;html=1;exitX=0.5;exitY=1;exitDx=0;exitDy=0;entryX=0.5;entryY=0;entryDx=0;entryDy=0;" edge="1" parent="1" source="4" target="eeMSQqvgx5vnNNO9UlVY-25">
                    <mxGeometry relative="1" as="geometry"/>
                </mxCell>
                <mxCell id="eeMSQqvgx5vnNNO9UlVY-29" style="edgeStyle=orthogonalEdgeStyle;rounded=0;orthogonalLoop=1;jettySize=auto;html=1;exitX=0.5;exitY=1;exitDx=0;exitDy=0;entryX=0.559;entryY=-0.003;entryDx=0;entryDy=0;entryPerimeter=0;" edge="1" parent="1" source="4" target="eeMSQqvgx5vnNNO9UlVY-26">
                    <mxGeometry relative="1" as="geometry"/>
                </mxCell>
                <mxCell id="eeMSQqvgx5vnNNO9UlVY-232" value="inludes" style="edgeLabel;html=1;align=center;verticalAlign=middle;resizable=0;points=[];" vertex="1" connectable="0" parent="eeMSQqvgx5vnNNO9UlVY-29">
                    <mxGeometry x="-0.0603" y="-1" relative="1" as="geometry">
                        <mxPoint as="offset"/>
                    </mxGeometry>
                </mxCell>
                <mxCell id="4" value="Engineering" style="rounded=1;whiteSpace=wrap;html=1;" vertex="1" parent="1">
                    <mxGeometry x="550" y="190" width="120" height="60" as="geometry"/>
                </mxCell>
                <mxCell id="11" value="contains" style="edgeStyle=orthogonalEdgeStyle;rounded=0;orthogonalLoop=1;jettySize=auto;html=1;exitX=0.5;exitY=1;exitDx=0;exitDy=0;" edge="1" parent="1" source="2" target="3">
                    <mxGeometry relative="1" as="geometry"/>
                </mxCell>
                <mxCell id="12" value="contains" style="edgeStyle=orthogonalEdgeStyle;rounded=0;orthogonalLoop=1;jettySize=auto;html=1;exitX=0.5;exitY=1;exitDx=0;exitDy=0;" edge="1" parent="1" source="2" target="4">
                    <mxGeometry relative="1" as="geometry"/>
                </mxCell>
                <mxCell id="13" value="includes" style="edgeStyle=orthogonalEdgeStyle;rounded=0;orthogonalLoop=1;jettySize=auto;html=1;entryX=0.5;entryY=0;entryDx=0;entryDy=0;" edge="1" parent="1" source="3" target="eeMSQqvgx5vnNNO9UlVY-19">
                    <mxGeometry relative="1" as="geometry">
                        <mxPoint x="100.00000000000023" y="300" as="targetPoint"/>
                    </mxGeometry>
                </mxCell>
                <mxCell id="eeMSQqvgx5vnNNO9UlVY-213" style="edgeStyle=orthogonalEdgeStyle;rounded=0;orthogonalLoop=1;jettySize=auto;html=1;entryX=0.583;entryY=0;entryDx=0;entryDy=0;entryPerimeter=0;startArrow=none;startFill=0;" edge="1" parent="1" source="15" target="eeMSQqvgx5vnNNO9UlVY-211">
                    <mxGeometry relative="1" as="geometry"/>
                </mxCell>
                <mxCell id="15" value="Designer" style="rounded=1;whiteSpace=wrap;html=1;" vertex="1" parent="1">
                    <mxGeometry x="210" y="590" width="100" height="40" as="geometry"/>
                </mxCell>
                <mxCell id="16" value="makes" style="edgeStyle=orthogonalEdgeStyle;rounded=0;orthogonalLoop=1;jettySize=auto;html=1;entryX=0;entryY=0.5;entryDx=0;entryDy=0;" edge="1" parent="1" source="15" target="17">
                    <mxGeometry relative="1" as="geometry">
                        <mxPoint x="190" y="690" as="targetPoint"/>
                    </mxGeometry>
                </mxCell>
                <mxCell id="17" value="Representation" style="rounded=1;whiteSpace=wrap;html=1;" vertex="1" parent="1">
                    <mxGeometry x="450" y="590" width="120" height="40" as="geometry"/>
                </mxCell>
                <mxCell id="eeMSQqvgx5vnNNO9UlVY-47" style="edgeStyle=orthogonalEdgeStyle;rounded=0;orthogonalLoop=1;jettySize=auto;html=1;" edge="1" parent="1" source="18" target="eeMSQqvgx5vnNNO9UlVY-41">
                    <mxGeometry relative="1" as="geometry"/>
                </mxCell>
                <mxCell id="eeMSQqvgx5vnNNO9UlVY-48" style="edgeStyle=orthogonalEdgeStyle;rounded=0;orthogonalLoop=1;jettySize=auto;html=1;exitX=0.5;exitY=1;exitDx=0;exitDy=0;" edge="1" parent="1" source="18" target="eeMSQqvgx5vnNNO9UlVY-42">
                    <mxGeometry relative="1" as="geometry"/>
                </mxCell>
                <mxCell id="eeMSQqvgx5vnNNO9UlVY-221" style="edgeStyle=orthogonalEdgeStyle;rounded=0;orthogonalLoop=1;jettySize=auto;html=1;exitX=1;exitY=0.5;exitDx=0;exitDy=0;startArrow=none;startFill=0;" edge="1" parent="1" source="18" target="110">
                    <mxGeometry relative="1" as="geometry"/>
                </mxCell>
                <mxCell id="18" value="Language of Design" style="rounded=1;whiteSpace=wrap;html=1;" vertex="1" parent="1">
                    <mxGeometry x="700" y="610" width="140" height="60" as="geometry"/>
                </mxCell>
                <mxCell id="eeMSQqvgx5vnNNO9UlVY-19" value="&lt;span style=&quot;text-align: left;&quot;&gt;Urban Design&lt;/span&gt;" style="rounded=1;whiteSpace=wrap;html=1;" vertex="1" parent="1">
                    <mxGeometry x="30" y="300" width="120" height="60" as="geometry"/>
                </mxCell>
                <mxCell id="eeMSQqvgx5vnNNO9UlVY-20" value="Regional Planning" style="rounded=1;whiteSpace=wrap;html=1;align=center;verticalAlign=middle;" vertex="1" parent="1">
                    <mxGeometry x="310" y="300" width="120" height="60" as="geometry"/>
                </mxCell>
                <mxCell id="eeMSQqvgx5vnNNO9UlVY-21" value="&lt;span style=&quot;text-align: left;&quot;&gt;Town Planning&lt;/span&gt;" style="rounded=1;whiteSpace=wrap;html=1;align=center;verticalAlign=middle;" vertex="1" parent="1">
                    <mxGeometry x="170" y="300" width="120" height="60" as="geometry"/>
                </mxCell>
                <mxCell id="eeMSQqvgx5vnNNO9UlVY-24" value="&lt;span style=&quot;text-align: left;&quot;&gt;Product Design&lt;/span&gt;" style="rounded=1;whiteSpace=wrap;html=1;align=center;verticalAlign=middle;" vertex="1" parent="1">
                    <mxGeometry x="440" y="310" width="120" height="60" as="geometry"/>
                </mxCell>
                <mxCell id="eeMSQqvgx5vnNNO9UlVY-25" value="&lt;span style=&quot;text-align: left;&quot;&gt;Industrial Engineering&lt;/span&gt;" style="rounded=1;whiteSpace=wrap;html=1;align=center;verticalAlign=middle;" vertex="1" parent="1">
                    <mxGeometry x="570" y="310" width="120" height="60" as="geometry"/>
                </mxCell>
                <mxCell id="eeMSQqvgx5vnNNO9UlVY-26" value="&lt;span style=&quot;text-align: left;&quot;&gt;Engineering Specialists&lt;/span&gt;" style="rounded=1;whiteSpace=wrap;html=1;align=center;verticalAlign=middle;" vertex="1" parent="1">
                    <mxGeometry x="710" y="310" width="120" height="60" as="geometry"/>
                </mxCell>
                <mxCell id="eeMSQqvgx5vnNNO9UlVY-33" style="edgeStyle=orthogonalEdgeStyle;rounded=0;orthogonalLoop=1;jettySize=auto;html=1;" edge="1" parent="1" source="eeMSQqvgx5vnNNO9UlVY-31" target="eeMSQqvgx5vnNNO9UlVY-32">
                    <mxGeometry relative="1" as="geometry"/>
                </mxCell>
                <mxCell id="eeMSQqvgx5vnNNO9UlVY-39" style="edgeStyle=orthogonalEdgeStyle;rounded=0;orthogonalLoop=1;jettySize=auto;html=1;exitX=1;exitY=0.5;exitDx=0;exitDy=0;entryX=0;entryY=0.75;entryDx=0;entryDy=0;" edge="1" parent="1" source="eeMSQqvgx5vnNNO9UlVY-31" target="eeMSQqvgx5vnNNO9UlVY-36">
                    <mxGeometry relative="1" as="geometry"/>
                </mxCell>
                <mxCell id="eeMSQqvgx5vnNNO9UlVY-31" value="&lt;span style=&quot;text-align: left;&quot;&gt;oldest recognized&lt;/span&gt;" style="rounded=1;whiteSpace=wrap;html=1;" vertex="1" parent="1">
                    <mxGeometry x="100" y="420" width="120" height="60" as="geometry"/>
                </mxCell>
                <mxCell id="eeMSQqvgx5vnNNO9UlVY-32" value="&lt;span style=&quot;text-align: left;&quot;&gt;continually shifting&lt;/span&gt;" style="rounded=1;whiteSpace=wrap;html=1;" vertex="1" parent="1">
                    <mxGeometry x="280" y="420" width="120" height="60" as="geometry"/>
                </mxCell>
                <mxCell id="eeMSQqvgx5vnNNO9UlVY-34" value="Confusion" style="rounded=1;whiteSpace=wrap;html=1;" vertex="1" parent="1">
                    <mxGeometry x="480" y="420" width="120" height="60" as="geometry"/>
                </mxCell>
                <mxCell id="eeMSQqvgx5vnNNO9UlVY-35" value="can create" style="edgeStyle=orthogonalEdgeStyle;rounded=0;orthogonalLoop=1;jettySize=auto;html=1;exitX=1;exitY=0.5;exitDx=0;exitDy=0;entryX=0;entryY=0.5;entryDx=0;entryDy=0;" edge="1" parent="1" source="eeMSQqvgx5vnNNO9UlVY-32" target="eeMSQqvgx5vnNNO9UlVY-34">
                    <mxGeometry relative="1" as="geometry">
                        <mxPoint x="424.9999999999998" y="450" as="sourcePoint"/>
                        <mxPoint x="615" y="540" as="targetPoint"/>
                    </mxGeometry>
                </mxCell>
                <mxCell id="eeMSQqvgx5vnNNO9UlVY-40" style="edgeStyle=orthogonalEdgeStyle;rounded=0;orthogonalLoop=1;jettySize=auto;html=1;exitX=1;exitY=0.5;exitDx=0;exitDy=0;entryX=0;entryY=0.5;entryDx=0;entryDy=0;" edge="1" parent="1" source="eeMSQqvgx5vnNNO9UlVY-36" target="eeMSQqvgx5vnNNO9UlVY-34">
                    <mxGeometry relative="1" as="geometry"/>
                </mxCell>
                <mxCell id="eeMSQqvgx5vnNNO9UlVY-36" value="&lt;span style=&quot;text-align: left;&quot;&gt;&amp;nbsp;multiplicity of voices&amp;nbsp;&lt;/span&gt;" style="rounded=1;whiteSpace=wrap;html=1;" vertex="1" parent="1">
                    <mxGeometry x="280" y="500" width="120" height="60" as="geometry"/>
                </mxCell>
                <mxCell id="eeMSQqvgx5vnNNO9UlVY-41" value="&lt;span style=&quot;text-align: left;&quot;&gt;drawing&lt;/span&gt;" style="rounded=1;whiteSpace=wrap;html=1;" vertex="1" parent="1">
                    <mxGeometry x="590" y="720" width="140" height="60" as="geometry"/>
                </mxCell>
                <mxCell id="eeMSQqvgx5vnNNO9UlVY-42" value="&lt;span style=&quot;text-align: left;&quot;&gt;talking&lt;/span&gt;" style="rounded=1;whiteSpace=wrap;html=1;" vertex="1" parent="1">
                    <mxGeometry x="960" y="720" width="140" height="60" as="geometry"/>
                </mxCell>
                <mxCell id="eeMSQqvgx5vnNNO9UlVY-43" value="&lt;span style=&quot;text-align: left;&quot;&gt;elliptical and inscrutable&amp;nbsp;&lt;/span&gt;" style="rounded=1;whiteSpace=wrap;html=1;" vertex="1" parent="1">
                    <mxGeometry x="700" y="470" width="140" height="60" as="geometry"/>
                </mxCell>
                <mxCell id="eeMSQqvgx5vnNNO9UlVY-44" value="can be&amp;nbsp;" style="edgeStyle=orthogonalEdgeStyle;rounded=0;orthogonalLoop=1;jettySize=auto;html=1;exitX=0.5;exitY=0;exitDx=0;exitDy=0;" edge="1" parent="1" source="18" target="eeMSQqvgx5vnNNO9UlVY-43">
                    <mxGeometry relative="1" as="geometry">
                        <mxPoint x="630" y="590" as="sourcePoint"/>
                        <mxPoint x="710" y="590" as="targetPoint"/>
                        <Array as="points">
                            <mxPoint x="770" y="560"/>
                            <mxPoint x="770" y="560"/>
                        </Array>
                    </mxGeometry>
                </mxCell>
                <mxCell id="eeMSQqvgx5vnNNO9UlVY-45" value="to&lt;br&gt;" style="edgeStyle=orthogonalEdgeStyle;rounded=0;orthogonalLoop=1;jettySize=auto;html=1;exitX=0.5;exitY=0;exitDx=0;exitDy=0;entryX=0.5;entryY=1;entryDx=0;entryDy=0;" edge="1" parent="1" source="eeMSQqvgx5vnNNO9UlVY-43" target="eeMSQqvgx5vnNNO9UlVY-46">
                    <mxGeometry relative="1" as="geometry">
                        <mxPoint x="900" y="470" as="sourcePoint"/>
                        <mxPoint x="900" y="390" as="targetPoint"/>
                        <Array as="points">
                            <mxPoint x="770" y="450"/>
                            <mxPoint x="770" y="450"/>
                        </Array>
                    </mxGeometry>
                </mxCell>
                <mxCell id="eeMSQqvgx5vnNNO9UlVY-46" value="&lt;span style=&quot;text-align: left;&quot;&gt;outsiders&lt;/span&gt;" style="rounded=1;whiteSpace=wrap;html=1;" vertex="1" parent="1">
                    <mxGeometry x="700" y="380" width="140" height="60" as="geometry"/>
                </mxCell>
                <mxCell id="eeMSQqvgx5vnNNO9UlVY-50" value="&lt;span style=&quot;font-size: 12px; text-align: left;&quot;&gt;is parallel and complementing&lt;/span&gt;" style="edgeStyle=orthogonalEdgeStyle;rounded=0;orthogonalLoop=1;jettySize=auto;html=1;startArrow=classic;startFill=1;exitX=1;exitY=0.5;exitDx=0;exitDy=0;entryX=0;entryY=0.5;entryDx=0;entryDy=0;labelBackgroundColor=none;" edge="1" parent="1" source="eeMSQqvgx5vnNNO9UlVY-41" target="eeMSQqvgx5vnNNO9UlVY-42">
                    <mxGeometry x="0.0435" y="10" relative="1" as="geometry">
                        <mxPoint x="740" y="750" as="sourcePoint"/>
                        <mxPoint x="790" y="730" as="targetPoint"/>
                        <Array as="points">
                            <mxPoint x="890" y="750"/>
                        </Array>
                        <mxPoint as="offset"/>
                    </mxGeometry>
                </mxCell>
                <mxCell id="100" value="Each Move" style="rounded=1;whiteSpace=wrap;html=1;" vertex="1" parent="1">
                    <mxGeometry x="700" y="870" width="100" height="40" as="geometry"/>
                </mxCell>
                <mxCell id="101" value="is" style="edgeStyle=orthogonalEdgeStyle;rounded=0;orthogonalLoop=1;jettySize=auto;html=1;" edge="1" parent="1" source="100" target="102">
                    <mxGeometry relative="1" as="geometry"/>
                </mxCell>
                <mxCell id="102" value="Local Experiment" style="rounded=1;whiteSpace=wrap;html=1;" vertex="1" parent="1">
                    <mxGeometry x="840" y="870" width="120" height="40" as="geometry"/>
                </mxCell>
                <mxCell id="103" value="contributes to" style="edgeStyle=orthogonalEdgeStyle;rounded=0;orthogonalLoop=1;jettySize=auto;html=1;" edge="1" parent="1" source="102" target="104">
                    <mxGeometry relative="1" as="geometry"/>
                </mxCell>
                <mxCell id="104" value="the global experiment of reframing the problem" style="rounded=1;whiteSpace=wrap;html=1;" vertex="1" parent="1">
                    <mxGeometry x="810" y="980" width="180" height="40" as="geometry"/>
                </mxCell>
                <mxCell id="105" value="is&amp;nbsp;" style="edgeStyle=orthogonalEdgeStyle;rounded=0;orthogonalLoop=1;jettySize=auto;html=1;entryX=0.5;entryY=1;entryDx=0;entryDy=0;" edge="1" parent="1" source="104" target="eeMSQqvgx5vnNNO9UlVY-215">
                    <mxGeometry x="0.0625" relative="1" as="geometry">
                        <mxPoint x="1260" y="950" as="targetPoint"/>
                        <mxPoint as="offset"/>
                    </mxGeometry>
                </mxCell>
                <mxCell id="eeMSQqvgx5vnNNO9UlVY-124" style="edgeStyle=orthogonalEdgeStyle;rounded=0;orthogonalLoop=1;jettySize=auto;html=1;exitX=1;exitY=0.5;exitDx=0;exitDy=0;entryX=0;entryY=0.5;entryDx=0;entryDy=0;startArrow=none;startFill=0;" edge="1" parent="1" source="106" target="107">
                    <mxGeometry relative="1" as="geometry"/>
                </mxCell>
                <mxCell id="eeMSQqvgx5vnNNO9UlVY-125" style="edgeStyle=orthogonalEdgeStyle;rounded=0;orthogonalLoop=1;jettySize=auto;html=1;startArrow=none;startFill=0;" edge="1" parent="1" source="106" target="108">
                    <mxGeometry relative="1" as="geometry"/>
                </mxCell>
                <mxCell id="eeMSQqvgx5vnNNO9UlVY-126" style="edgeStyle=orthogonalEdgeStyle;rounded=0;orthogonalLoop=1;jettySize=auto;html=1;entryX=0;entryY=0.75;entryDx=0;entryDy=0;startArrow=none;startFill=0;" edge="1" parent="1" source="106" target="109">
                    <mxGeometry relative="1" as="geometry"/>
                </mxCell>
                <mxCell id="106" value="Three Dimensions" style="rounded=1;whiteSpace=wrap;html=1;" vertex="1" parent="1">
                    <mxGeometry x="15" y="830" width="120" height="40" as="geometry"/>
                </mxCell>
                <mxCell id="107" value="1. Domains of Language" style="text;html=1;strokeColor=default;" vertex="1" parent="1">
                    <mxGeometry x="190" y="810" width="140" height="30" as="geometry"/>
                </mxCell>
                <mxCell id="108" value="2. Implications" style="text;html=1;strokeColor=default;" vertex="1" parent="1">
                    <mxGeometry x="190" y="850" width="100" height="30" as="geometry"/>
                </mxCell>
                <mxCell id="109" value="3. Changing Stance" style="text;html=1;strokeColor=default;" vertex="1" parent="1">
                    <mxGeometry x="190" y="890" width="120" height="30" as="geometry"/>
                </mxCell>
                <mxCell id="110" value="Elements of the Language of Designing" style="rounded=1;whiteSpace=wrap;html=1;" vertex="1" parent="1">
                    <mxGeometry x="950" y="610" width="180" height="40" as="geometry"/>
                </mxCell>
                <mxCell id="111" value="can be grouped into" style="edgeStyle=orthogonalEdgeStyle;rounded=0;orthogonalLoop=1;jettySize=auto;html=1;" edge="1" parent="1" source="110" target="112">
                    <mxGeometry relative="1" as="geometry"/>
                </mxCell>
                <mxCell id="112" value="12 Design Domains" style="rounded=1;whiteSpace=wrap;html=1;" vertex="1" parent="1">
                    <mxGeometry x="1300" y="610" width="140" height="40" as="geometry"/>
                </mxCell>
                <mxCell id="eeMSQqvgx5vnNNO9UlVY-117" style="edgeStyle=orthogonalEdgeStyle;rounded=0;orthogonalLoop=1;jettySize=auto;html=1;entryX=0.5;entryY=0;entryDx=0;entryDy=0;startArrow=none;startFill=0;exitX=0;exitY=0.75;exitDx=0;exitDy=0;" edge="1" parent="1" source="eeMSQqvgx5vnNNO9UlVY-215" target="106">
                    <mxGeometry relative="1" as="geometry">
                        <mxPoint x="350" y="933.0612244897959" as="sourcePoint"/>
                    </mxGeometry>
                </mxCell>
                <mxCell id="200" value="Ambiguous Design Terms" style="rounded=1;whiteSpace=wrap;html=1;" vertex="1" parent="1">
                    <mxGeometry x="790" y="780" width="160" height="40" as="geometry"/>
                </mxCell>
                <mxCell id="201" value="creates" style="edgeStyle=orthogonalEdgeStyle;rounded=0;orthogonalLoop=1;jettySize=auto;html=1;entryX=1;entryY=0.25;entryDx=0;entryDy=0;" edge="1" parent="1" source="200" target="eeMSQqvgx5vnNNO9UlVY-34">
                    <mxGeometry relative="1" as="geometry">
                        <mxPoint x="800" y="800" as="targetPoint"/>
                    </mxGeometry>
                </mxCell>
                <mxCell id="203" value="Early Stage of Process" style="rounded=1;whiteSpace=wrap;html=1;" vertex="1" parent="1">
                    <mxGeometry x="980" y="815" width="150" height="40" as="geometry"/>
                </mxCell>
                <mxCell id="204" value="prioritizes" style="edgeStyle=orthogonalEdgeStyle;rounded=0;orthogonalLoop=1;jettySize=auto;html=1;" edge="1" parent="1" source="203" target="205">
                    <mxGeometry relative="1" as="geometry"/>
                </mxCell>
                <mxCell id="205" value="Attention to Features of Situations" style="rounded=1;whiteSpace=wrap;html=1;" vertex="1" parent="1">
                    <mxGeometry x="1280" y="815" width="200" height="40" as="geometry"/>
                </mxCell>
                <mxCell id="206" value="affects" style="edgeStyle=orthogonalEdgeStyle;rounded=0;orthogonalLoop=1;jettySize=auto;html=1;" edge="1" parent="1" source="203" target="207">
                    <mxGeometry relative="1" as="geometry"/>
                </mxCell>
                <mxCell id="207" value="Later Moves" style="rounded=1;whiteSpace=wrap;html=1;" vertex="1" parent="1">
                    <mxGeometry x="1005" y="925" width="100" height="40" as="geometry"/>
                </mxCell>
                <mxCell id="208" value="yields" style="edgeStyle=orthogonalEdgeStyle;rounded=0;orthogonalLoop=1;jettySize=auto;html=1;" edge="1" parent="1" source="207" target="209">
                    <mxGeometry relative="1" as="geometry"/>
                </mxCell>
                <mxCell id="eeMSQqvgx5vnNNO9UlVY-210" style="edgeStyle=orthogonalEdgeStyle;rounded=0;orthogonalLoop=1;jettySize=auto;html=1;exitX=1;exitY=0.5;exitDx=0;exitDy=0;entryX=0;entryY=0.5;entryDx=0;entryDy=0;startArrow=none;startFill=0;" edge="1" parent="1" source="209" target="210">
                    <mxGeometry relative="1" as="geometry"/>
                </mxCell>
                <mxCell id="209" value="System of Implications" style="rounded=1;whiteSpace=wrap;html=1;" vertex="1" parent="1">
                    <mxGeometry x="1250" y="925" width="140" height="40" as="geometry"/>
                </mxCell>
                <mxCell id="210" value="&quot;a discipline can always be broken open later&quot;" style="rounded=1;whiteSpace=wrap;html=1;" vertex="1" parent="1">
                    <mxGeometry x="1460" y="925" width="220" height="40" as="geometry"/>
                </mxCell>
                <mxCell id="eeMSQqvgx5vnNNO9UlVY-214" style="edgeStyle=orthogonalEdgeStyle;rounded=0;orthogonalLoop=1;jettySize=auto;html=1;exitX=0.5;exitY=1;exitDx=0;exitDy=0;startArrow=none;startFill=0;entryX=0.5;entryY=0;entryDx=0;entryDy=0;" edge="1" parent="1" source="eeMSQqvgx5vnNNO9UlVY-211" target="eeMSQqvgx5vnNNO9UlVY-215">
                    <mxGeometry relative="1" as="geometry">
                        <mxPoint x="410" y="730" as="targetPoint"/>
                    </mxGeometry>
                </mxCell>
                <mxCell id="eeMSQqvgx5vnNNO9UlVY-211" value="good process of design" style="rounded=1;whiteSpace=wrap;html=1;" vertex="1" parent="1">
                    <mxGeometry x="330" y="670" width="120" height="40" as="geometry"/>
                </mxCell>
                <mxCell id="eeMSQqvgx5vnNNO9UlVY-217" style="edgeStyle=orthogonalEdgeStyle;rounded=0;orthogonalLoop=1;jettySize=auto;html=1;exitX=1;exitY=0.5;exitDx=0;exitDy=0;entryX=0;entryY=0.5;entryDx=0;entryDy=0;startArrow=none;startFill=0;" edge="1" parent="1" source="eeMSQqvgx5vnNNO9UlVY-215" target="eeMSQqvgx5vnNNO9UlVY-216">
                    <mxGeometry relative="1" as="geometry"/>
                </mxCell>
                <mxCell id="eeMSQqvgx5vnNNO9UlVY-215" value="reflective" style="rounded=1;whiteSpace=wrap;html=1;" vertex="1" parent="1">
                    <mxGeometry x="330" y="740" width="120" height="40" as="geometry"/>
                </mxCell>
                <mxCell id="eeMSQqvgx5vnNNO9UlVY-222" style="edgeStyle=orthogonalEdgeStyle;rounded=0;orthogonalLoop=1;jettySize=auto;html=1;entryX=0;entryY=0.5;entryDx=0;entryDy=0;startArrow=none;startFill=0;" edge="1" parent="1" source="eeMSQqvgx5vnNNO9UlVY-216" target="203">
                    <mxGeometry relative="1" as="geometry"/>
                </mxCell>
                <mxCell id="eeMSQqvgx5vnNNO9UlVY-223" style="edgeStyle=orthogonalEdgeStyle;rounded=0;orthogonalLoop=1;jettySize=auto;html=1;exitX=1;exitY=0.5;exitDx=0;exitDy=0;entryX=0;entryY=0.5;entryDx=0;entryDy=0;startArrow=none;startFill=0;" edge="1" parent="1" source="eeMSQqvgx5vnNNO9UlVY-216" target="200">
                    <mxGeometry relative="1" as="geometry"/>
                </mxCell>
                <mxCell id="eeMSQqvgx5vnNNO9UlVY-216" value="example of the protocol of Quist and Petra" style="rounded=1;whiteSpace=wrap;html=1;" vertex="1" parent="1">
                    <mxGeometry x="540" y="830" width="140" height="40" as="geometry"/>
                </mxCell>
                <mxCell id="eeMSQqvgx5vnNNO9UlVY-218" value="where" style="edgeStyle=orthogonalEdgeStyle;rounded=0;orthogonalLoop=1;jettySize=auto;html=1;entryX=0.5;entryY=0;entryDx=0;entryDy=0;exitX=1;exitY=0.5;exitDx=0;exitDy=0;" edge="1" parent="1" source="eeMSQqvgx5vnNNO9UlVY-216" target="100">
                    <mxGeometry relative="1" as="geometry">
                        <mxPoint x="870" y="839.05" as="targetPoint"/>
                        <mxPoint x="720" y="839.05" as="sourcePoint"/>
                    </mxGeometry>
                </mxCell>
                <mxCell id="eeMSQqvgx5vnNNO9UlVY-224" value="includes" style="edgeStyle=orthogonalEdgeStyle;rounded=0;orthogonalLoop=1;jettySize=auto;html=1;entryX=0.533;entryY=0.027;entryDx=0;entryDy=0;exitX=0.5;exitY=1;exitDx=0;exitDy=0;entryPerimeter=0;" edge="1" parent="1" source="3" target="eeMSQqvgx5vnNNO9UlVY-21">
                    <mxGeometry relative="1" as="geometry">
                        <mxPoint x="100" y="310" as="targetPoint"/>
                        <mxPoint x="170.00000000000006" y="260" as="sourcePoint"/>
                    </mxGeometry>
                </mxCell>
                <mxCell id="eeMSQqvgx5vnNNO9UlVY-225" value="includes" style="edgeStyle=orthogonalEdgeStyle;rounded=0;orthogonalLoop=1;jettySize=auto;html=1;entryX=0.533;entryY=0.027;entryDx=0;entryDy=0;entryPerimeter=0;" edge="1" parent="1">
                    <mxGeometry relative="1" as="geometry">
                        <mxPoint x="363.96000000000004" y="300" as="targetPoint"/>
                        <mxPoint x="160" y="250" as="sourcePoint"/>
                        <Array as="points">
                            <mxPoint x="160" y="270"/>
                            <mxPoint x="364" y="270"/>
                        </Array>
                    </mxGeometry>
                </mxCell>
                <mxCell id="eeMSQqvgx5vnNNO9UlVY-234" value="&lt;span data-metadata=&quot;&lt;!--(figmeta)eyJmaWxlS2V5IjoiUmd0aFF4NUI2MTNXVG5sRDE3d2FWbSIsInBhc3RlSUQiOjEwOTUyNjAwNywiZGF0YVR5cGUiOiJzY2VuZSJ9Cg==(/figmeta)--&gt;&quot;&gt;&lt;/span&gt;&lt;span data-buffer=&quot;&lt;!--(figma)ZmlnLWtpd2kwAAAAnkUAALWde5hkSVXgI25m1qOrH/N+MTMMb0XEeTE8RCQft6qyO1+TN7N6etRJsipvdSWdlVnmzarpYl0XERER8YWIiIgsIqKLiIqIiiMiIiIiIiIiIiLLsizrsqzLsqy7vxMR95HVPez+s/N903HixIkTESdOnDhxIvLW73n1MIr658PO4V6o1HWnm9VGL+gU2x3Ff41mxe+V14uNNT8gq7uB387kPUPtNyrAuaC61ijWgPJB51zNBygYoBf4wmvB0BrOveBMtdVr+7VmUWouNpqd6uq5XrDe7NYqvW5rrV2sSP0lB/YqzYbkl+N8219t+8E6qGNB2W/4PdCt9d69Xb99DuRKFtn2WzVBHq9UV1dJT5RrVb/R6ZXatF4uBtK3k5m+nW5224zDl56dCjptv1i3JeSvcHk74iurjY7fLpY71Q0GWavSMSsayq5q++Vmo+GXGWymM3EPr758cdzXa0x/aKVXbZTbfp3+FmuUujpQXFu8OIyYgPuAlVTRxa0tJhIUPaz0mg3DSJnM2Xa1I53SjckgbO30oxAy+BY7ZpQQ1ZsbBtRnh+PBcHy+vT8Smkazcb/fblKgmhVTLhyspjyBQh+UqjTLXekhoC4XGxvFAMhbaze7LYDcartYF7p8qdms+cVGr9lCaJ1qswGysMFwmm2gBZEx6WKtatgu+bVatRUIuMzAO8jV6NSxtr/WrRXbvVazdm7NMFmhqUbFr4iAErrjHf8+6dIJJqYsiJPBuXqpKfp5qtqgsYbBMqPV8hkR1ZXBerHl985WO+s9V/cqJ2/TwavLshZKtWb5DLlrzlYra0avr4VXXUZ6Xd2vVIsA169X19Zr/C/FNwQwsIO90YE9hN2uFaXRm84Wg/Vqr0PL5B6xUWxXiyXT/5s7DrjFAL0y8iB3a0ziVtUjGZ5ZK7cVg6AaMKE9ODe7UvaoS/XTrxllovDRCSPpTZtCkI+pNytd0+pjLf0aBeQeZ3Pt5lkyjw92+nvh2eFspxNenFlluDW4t1ts+5Qq+unmTSOOetMsFa9DYzIzrG6yuSRbaZ4V0eQvN4WFVrFdrNUwE6yOeq/tJLowj675q4Jd9BtrvUoRYRVN40uSZ7l1JbMsmdWq4XrMwM1axZdZXemw8Pz7m2aYx1ttv+KvooCVXqvdLPuBqPIJZsivSfnJWNV7QdX18VSCqndrnWrLIK+oFxtdFmy10TITceW6f1/R6upV5XV/o23Aq1tUc+hrmgzbgqJP0rPrWrWuNH99sY3c42HeYHOxLG4MuvU6femd7jaYZ8PgJqOujwhavl9e75W6JSYZxM1GG7BsWLNmu2is1C2lUTge1FnT0h00qNdZZybWxLJi+9t1Y891pdg+4wtrzw1SVDcnC5V1WMJcks2Xm7VmkisY9Td1FgIsjYHM0qZGpcnSIb9kq8TZZVFElBfwWNBc7fQMD3Ir68U2au1yxo77bd+u3xP+fWXkZEd+ct3M9qmg2OkmJuYK0wrAlbUuomoG1Y40cVWrPxw77V0Kmug3SIVGVapMC61JV8HoBCWpkQe2DVBQaKrYInC5BAeRU/p8tW7FXMC+nq4CLGywjMScLlZ32XKDrf4otNJnz2z7nbIR/GpVxqnRV9Nax+ptzt/eDrdcj/NVDFObHbPIAqJQVdrNVprVq03MJDPJDlKqdaWDXqlYPjOPysn6LZvdYKGJRlVRDtCq28JCk+pa86wB6ELH9iFAI2q9crElmplPcyyodtnsIAVhWgm3JtP+bDgZUyfeJ2iZ+UWuwJrhVs/4qbZ5tbAvG09nOtwlF9eBd2/ddzOvG/u7m+G0Ox7OIvi2izJU1are59cCAE2v2UuF0itPxtFsms7wIjMPXkm5GZKuF2Xr9OiHE3suKLPrA+RX4Vjp2RoFlzHUC8FsOrkQFkfD82MqJMwUGwoTC6CxvA70LHG5v4dGxuNhuEY1dGIvPbugRS4yiJzN+vd2qzW2ZwwdyLzTKTFh1jEpID6UDwOaoBayu85iuq/07iC/lMnfSX45k7+L/LFM/m7yK5n8U8gfz+TvIX+iXG2Xs62ftKM9PRmKZOr4G22wquRv+DICHQ/cK00mo7A/bu6FsYLkuw27UhEj1WSTBNZBt4RtNrB3n1nARl+N8Ncn0+HzJuNZf0R1Zxkzc4suGyl4p7ts76tV08O09kY4nQ1ZeoJrtijKVC01O51mHcirT/ajsLw/jSZT5MO2UMT2UaDK7WbASqu2gbV/zpelh+qR8/D+TFOtIkPBFpZRcfJ5LD1JgaRcrQEt1MWiSpVFphifGmgpmT+TXd5gsU+m9eF0Kh1IVpGZdVJtACwQlpEdrSMq7FX60Y61J16ZXRiUShVcG5tj10O+1VgDpU63fEl1sCGJ16qIh5zzL+5NprOjayiHN4RJZ/NzC0XFCHwh076OEcmS9Wr9w8n+bG06HFgmebusMhJPO+jZVZZL67T6s1k4HVMEVbVlVgg22thqbeZzfzZph9HwebBORGS6YyST9EMnkCfVOtP98ZZTP69SDcQPEp4Kl5vdFEAHs8NRGIRu7ExdO2g6+9jhCECiy2iX1RVOI7gajbJsLLmOX2+xwRo/Px+zQZizMJHkJfsNoI53CwxHf+uCncZkTOsY6PuRrumBZqPEbTWwpTZ6TXOXSNeK1CuhZGJigHOmQnmyT4emrt7Cw9VD7G5ycsVuR3aufIZVwbA6vR/NhtuHZB+WS6tYxvfc8O2hJGfzJb9z1joGSAk+gZ1FY3BBcioJqvf7vU4TK2MENIdA6Zjkar2Fe09OSqCx0mhNoqFMLvsJKNdxVSwh9q49CBmys1Oxzew1HJCKLdDKpbY4KyI3fVDH3I6OQUMyZsnSrJ3k5XjqMAXW75LDNHndbZuJK7Ehk+bKtabxWPN49L3YKydf6LbwZ/2eOVb02t1Gp2oOUgusskpVvBujAIvZaj0ceKFZqtLfaT/TnSs4d2ATTJOquEqXesKP/Yq8rjc52eOvAnsWtgU5aq2LXwactwV4GEJWsDnjzi9AhetsvOVFN+ylCj4m6TJlZ/xzcbVjZDea9kS2AmwHt24m+HiSZxmSP2GbiLXppM1yhtyQ2qc60/7YzrMd4U3swpwdOj22DfZjERBkiuXNvJsqepXgAalnjzOr7WZyfMhlUPH2kc/g7EZRyGCSnWKh1Q3WLc4xW0wxMa+lFGVZLaeIhNMxOYZbnOO0kmJiTsdTlOWEmGJEwumk7SiTCFHM7NQcMuZ3xRzWsrxyDpdwvcq05LCO6dVZXMzzmizSsrw2i0o4XofNq5bRWjM/1+NQEoEpNjCFZp3ewNmhiYuZYm70+xHL2s74SYIk5W6pWqZACes4o6uNbNYTe2XddGrIukuK8kI3hynYunO4BWvqk/xi0GrbfWJpDfVk3SWIZUeaII5ZyCwQVqpdHSvzyM5ZsSnHjyDXOTeBPhFsTSejUWU4teaFTrs19jV2BSRsrLati22aiTUIB1i2WUi5f1+LDdIa2jIcxNMyOb3WZWvSXkQwicaAF5UeTXCXDOiVJyP8EZ2fqmWlz/OPt8k/uT7/5K3LQuWL5PQh/3htUFCniAf5J7fDP3nDKZhN9qiwJbB6jtJ7znRD4NX7s+nwotILu7ffTl7v3n4Hibd7+50kud07BJnfvUOQhd07BLnQ6k8x09XxIKSed35/OFAPZJiuKM+eISg86I/2Q+rofXOeuFl5q0ip0d8Nlc5t93eHo0PodSQbOIAHk1m0NR3uzcjlhHajPx32qbK/G06HW6vD8/tTRMuW7c7NCrVjPgE04QYTCwU2zcxXDfb6Wyj1XF3iD3gRYsRMXhPYcEfNyzBYlcmVAWY5YEiJKBgYJwt1NvObrV3u70Uoc1qF9WfOnJqkF2e8ls/5T7qeA9FLcuK3Ez8VsACKwa4BLmT4t2K5Z7uFX8+/uPe4VACmP4ERMpOTUFXRabPUdBDuwmq4dTYcnt+ZzRERzpMhJSRVDgTDrTmSlA8nDrNRrIb9mZmof9QtjpcUqfKdLUPiRuOVW4HgczIqUjNQ0oKLhS4Q/RE/ebHZrjRIl4qrbSlfrjSMUTvW6NZlaCt48xIPPM6+K6I5UbHpSXHzSU9xGpb0imLRnCyuLNv0Ko5Wkl4d2Pw17Q0TVLlWFjjpdcFZE/u+vhyclfQGJlnwN5bLJhB5U2BdtkesExAkvdk5R7c02w3p360iFNJHsk+K/G6rdMwB+lGrtaKM49H1tba4CY8J0FnSx3JUkfYft4pnTfr4dZs+Yd22+3Udm//6e236xJZNv0GOX6RPqq2WJP+NzZZJn9zumPSbWrb+7a0zDZHTHTXMEOmdpNLPu9qdmuTvJpX8U4ql9gbpPcXShuSfSir9ftqG5fP0DTpE+oxS7azMzzeTCt0zSYXuW4pn1mUczyqfNsfKby2vmgX17HLL5IvlblvoSrgMki9jJCWtrFr+PpFB6c8q6Z2ka6R3ka7TrLRXJRX+p9fteGhtTfpTW2+eFr3BPTZ+TqOKQ0LaPN166tNIW6dbTxM+955uPf120vbp1u13kwa103Wp1yHmLPRddkeZlw1xkkjPkko/7qufqQv+XKNm3Lv7G90zHdJvYyORfn07aUD6HRsInPSBVtARfI9U8M9pn2lLvt9urUu62e6WZN63Arxr0kHH9iPsNMzBZ5tpkvk7v0GcjXRnw5YPN+y4n7txxujLhY12p006Ir2TdDcIsOBKjUklPyG9i3SP9G7S7yR9CumU9B7SiPSppDNSkdM+6dNJD4IA26/Ug6TC7yKp8DskFX7PIxV+/4pU+H0XqfD716TC77tJhd+/IRV+z9dBcKcw/B5d3jA9fIEAwvJ7BRCeLxRAmH6fAML1RQII2+8XQPi+WABh/AMCCOeXAJiu/qAAwvmlAgjnHxJAOL9MAOH8wwII5x8RQDj/qADC+ccEEM4/LoBwfjmA6fNPCCCcXyGAcP5JAYTzKwUQzj8lgHB+lQDC+acFEM6vFkA4/4wAwvk1AHcJ558VQDi/VgDh/HMCCOfXCSCc/60Awvn1AgjnnxdAOL9BAOH8CwII5zcC3C2cf1EA4fwmAYTzLwkgnH9ZAOH87wQQzm8WQDj/igDC+S0CCOdfFUA4vxXgKcL51wQQzr8ugHD+DQGE89sEEM6/KYBwfrsAwvm3BBDO7xBAOP+2AML5dwDuEc6/K4BwfqcAwvn3BBDODwkgnH9fAOH8LgGE8x8IIJzfLYBw/kMBhPN7AJ4qnP9IAOH8XgGE8x8LIJzfJ4Bw/hMBhPP7BRDOfyqAcP6AAML5zwQQzh8EeJpw/nMBhPOHBBDOfyGAcP6wAML5LwUQzh8RQDj/lQDC+aMCCOe/FkA4fwzAmKi/EUA4f1wA4fy3AgjnTwggnP9OAOH8SQGE898LIJw/JYBw/gcBhPOn9dGgEy7ajO1a3a107Kp54pvW+3t74ixpb3s62RX3bjbhX680mmwqrTcPZ2GkctpGu5SX47pzR/Jj8ezw4wb9Wd/QLqrcxnAQTpTnxTTRXd3pSIha/WgWBpP96RYsvGiKd4eDIu7gdKshkRkaBMUZuyyea3HwXIIgSi/NpOP4lNFOfzB5MAL0dnBbCCHs4GPitQ7CWX84AsqHjDcSRwTv9YAQQ0ioC3hhFu6a2KgtWjwYbnLOpRvLnCFFLrZZd2mvvGP/f5vcwjubIgzg5c2p8BzTMrljpjPKu85M0hVKb4kg1HOUNxFvdibOfu5gGA03EZxWeRJ303RSFSK8/kht6wV4j6PtyXRX7ajFoZmxF2u1ZKDODq76WLoOark/BskBpipFgrnCYnAv8X6Z2kV1JfnspcpV6pjF7Ez2R4Oy9K/eH4OgP9dNJ5yEqEw3VyKpAnB828jWULopfZlWJ/ZkpKumCNusToa7k+cOy7TQItqNjBf1qQOjSC/R6ioi0+eHY05L0vLZ4WDGwNTVc9h168kuqmu2pCWcZfXGvLpWHOE6c1VBQZVXuBAeqrHS22Brw3FcidkVTGV4PqR3OU4q5Kz7/DyVl4zzkwtcXZCD+dCO08v1Lw6jTv88DWsBGyI1dD1eXSZAbhu/emunL0eKcBpBoZOcaahakSF7kcDNg3BKnDbs9Jlf9Q5P50YmeGtieZvMOrdLI3ofsYnowvnR4d5OxO6hFwbJDVHE3qEXNzliXvjO/Yks3jdofYVls0EHIKHHS9sMJpHOy7Ve3u6PRpuE6VYpiNRYH9tBEac0dqE0uQiXV2u9Qg7otTl9fJZEfDkBT90JsaBOOHw4SOR7cjQ5L7cDhqQzKcdjb25vR+EM66OW9andYRwSTOpduUsO/rb112h91YCj2UE4qJlOvC6nr65YRCrn43aYTlp6TlpeKi2W8Jy0WExz0ips05escBYulcWiGyk85iSw5PAZCSz/P0jg2NHRrgzs4Gqm/4z2+HqmD8rLbxJOHURqwIHb2lh3Os/txHQcGgpEGRPGLIK0UpR2migEtiSGc8Nog2MfJAQDbN0zLJ1FVSg5cSpvCbtnT6JI+UGzKFlIUnYOICdAMvq85IrRFqzILWImJ9OwlrmdxCpuD6fRLJGLtEWHsvmFNZk8Gt6a7O72GULJ7jhpKGJT2RXEoBmDTKDRAtq/lHl/cODs8cKltmfRoIxhCcKZ+mSe0GuiLmxeUyIwSFAjwbg52Sud/mAWDtx1WAk7hBQNut6fMm1O9tmO2hCP0TOpKZlGOHtwArkbIeLaZT6eR6yJf5JxXmopZDPnggcpaVGFSD2gdXC4uzkZOfaRydAue7yFYyaRMPAI3MjWEdD3cBVhsf0wmTFb9NT4CZ6HbsBhDxwOJ8EBpLcWjmXDQ0KurUmWs96PwlW0YE0cEcZxODbhGY3zMNzebo5Hh22EftAfGepcxWp+dXd3fyajM/uR5evN8yXj7JlXjKJwVh3QS8aPrk2H0LxNa+0KfFCHMOhLVhQaO2zg6gA31dVvh9uQXLClMXOWlimE0FsUycro+4IR8rdTl7U0Y3CT/b3qAA9X5cwMAb+TNWQlTeYhjZcg2wdDIvsurRbibGC4v0cTCM2y8uI1Pd9c4Lg/XHHc4MOUb7hGUYT/C0UTEYiwq4P/G2XAACoPR4TzsE9zg4cr7+yEu1+jNwHGCOcFGqcDM4Ghf5+em6SUrjUVd8hbmElmI6HA7017a8Ttzdg6nDgjZktj/DqgyuJH1PvjffbEwyAcsS5DlrLKD6PSZDpwLs1lCArR/qYENTfZlaRxN4aFtG/zCvohFHSuzKdA1HQmeTopYzSwHdMH6HOAKZNFJLMM/5AILbbMW97GpT5jVTcyhYgIt/rAjn+9j0tOoFVE3OonyzniPMj+55z8wmiIqzo9lDXfmQRuLJAJgjO7XsD+7k3G4dgtocX98fZILpXlbjDLcmkYdeMiI5ll2+1yXL/e50QQG76tGGu56r39zdEw2oGZNCzd7Uw6YX+3lnZPGvGONpKrctoR0x5rbjCTYafmSFg1t4MH6SkGxhGLFcPdnuvCvKG5PN+NO/+fOLM39EdBZkbiKpa1fYakvBPG8b9GeoJuGcff+AdY/NyU3XJfTgn59ARQIElOAAvR3jTsD6BYjHYmDyJrzi6lEAkOxDxDvmR5bLAp4Rwvm0Zc5pit7HIrFx1w/NABJzpyqjDbbHW8Lec709UNpQf71ujTroeCziZSUAkPhlvxu4j4ZkVCZubthi4TxDRhXc/guGyRoDx57L5UbMcHCXYWV7lcPtszx2R9pBHcIMmoTyLmyO2OjAWpVQdM5XB7yIaP0lPL8vwUa7iJ+PETW85z6AgDtZRcsivu1+LLOC1wUuJJLr6Sy3EjxDhiyrzLJsQFh4jpF+wbRqBF14ESzvZ5LL24XiwFNlx6QyvJqOUem/ste80sV33uJZS+hIEdQ1KTcGi10ovf6V1KXkRHcYdEQT1vM0EbLp9DlCmqLGoiutjoc8A1MjRUqtAobhCNNxcXitvGtn1oqIOz5grAk7THLYkhyLlrR3PTn/c5NUtgAs5Mp1gtKOJnnxCooL1mrjQIG7dg22vd1du4G4RnawYcs7EMGPhj0f72NjdaWIyh+GumayzKLfz6mfgaMyKPKhcdnBc7Y85nzD/ZasWsmy+xisg192fio4rhpxwTx3TgC4pfQn4RitUJgYvAvMjCbl2IQC/h0xQ3o8lofxY6zw4jt5Ud1T9pdcx1eWPNNam86mqv4fvuqrBYO1s8FwDomjm5yCOd2BTcwz7IsVJ52PBk1efG+7sB9oKJiBTevbMRBCAiiw1kGeDYnt/HKk5dbtH0i3lc2hNjOR2rp6nlDCe30I9Zbi63EtlS4eFQx1OuDnNijf0ENTKHYbqqLQvajDfzXAvLCMGD2CKmzbyEX1JYuTlHHh9KdmHjEwcCdkQEcpdmVVoexpFw8dZunhGM596U5/zVVfvCLc/1QrMtUME9aVrADrLnGH6ZndK2Ze187EC47THeXIWAmWasojn0PhKMqxIxo7H1IO/JZNsidz2M4WW5IHAQRvNlhhnCfX6ld3bdZ0WvV2uVXnO1Z4u56evFz/oZIav9nCuRil5xupX0gkMbQiyOzyNFglTsAJmsNxzjhreNoSebs5tOjaMgdfenQ3qoB8Nob9Q/NIthRRxwkzW6T/9bo33iKq61PZNBklTDOSeoQYULdqAtU9YOR31Ouzu2Qn7PIG2F3dAG1KjiphoQ96qCs2R9pXx9fzQbSuvhdHUYjgYbdiqYoC0WFLJHGXT23pzLcgYoB5N6X6JtSi3F+uGeEYnBJvGcVc5ZIwyUj+1wIbHQC1KnN3flv5g04I8He3IiRAyhA2UjpRu4p3vx5G9ye2578jJP5ZLKANiKUUtqMZoMuV3RVIPE0orkAyApx1WuVio18yQL22l0mVuuGGVf8cQPo2zV+tB2jmYikMLl5V52FSbUqAEmDC1GLH6t1DxrLRALquhEw9bctj9bSWvZZeglm5e5BUdVgXRxPHb7KhaPmMPs0FLf4Bar8LaLVXOBad5PeMm7wRy3d70YnZdMUlSoF+9Litg370uLFi3LpHSpzB2s3+5xgVbtymJZTszBMTEQiNG+ElgxOe6u12goO+XHV4F6q8V61bylO2Gy7oL3pMmcjRs/xUL1075cUfM7aFJPXq6xgsFcyaSxU6eIqyyiVay4Z5BXW4R7VXaNzZleuc3v2qZUNtfE15Wb9RbqbfDXXyps5emZyPvVzHdaiiKM+puhRIT0nqWUg8ZrON+nRPWwL3FrCe+IVgdiwlXerh2VrBntVpEXr53cZTkQlTGGXsv9gbAD9mYTB+VirGnkdZ7KzyZBf9dm2X+NyWoadRVrMuPkj9ousBfG6NXhRewFm5jlGZiYgNlU3sQ27I4E9clB6JzTyWhwxhgpQhRY8NXEOnsZ2vUhMfPpYZVQPVUiczMh3KtmJDZfPnIkwOcMRyJR01ETmruA1RvbarS3nTY1oszZWAmHXeiaGF3+7HBwPmTzYMVi3jyCO6YuTfqDIeE4GUB+NsR4zvq7e9Vo8rR7uECFNd7GFELhzKCEOBwUJead28J3jzN5KYgXba7iy08ImTd1dr3a8UvNYlsWtzaP0WSxeGxxFxxxsdZal8tmefcleg6kzQ883A+73CneUTfQS5AqQK0xTvFLTPNzljjnBVgQVCVAY9iP8CFdpVKX3Y9UzxHYwevIZNTbUOoGwiFuN2YX8V5qDq4iKElt1P0pezv9KFQLyjOARd6zxwYeP1l6rsplspbgqTMZwjH0kNSinja2M1WQ1KKePoxa9hAq2oaivllzYOM0vCc9hvad3ijVJtP3N3jq+VmkUzH1Rk//lNs2f8/4CkWJbkjA4de1+t/WGWFfWVR3OND2IBxGwWR75vbLQIroxls0Fw2TcXdvwKS7rv0quNXhaBTT/Ax566zGmJ8D0zywp05JZeeIy75se9BBGuqrmhtok63MDfb3YjcJ+Jc0MrmMj/R8j8vmTFHqcP2L5vb5iNP0kDd5LofKYJ/lhBpMQ2OIjBsgnP6a3eygPpmMR0Nua0aHcQsfx8XZITyIUXDjRXIPEC936MywTcHr4oJkxAb9CzHauedJwRuTAnMqTwt+MS4QDz1FvylGZ/rDYcF2g/Lf0pFBDkAKCTEm9X4rcIOzhHHJn2ZKpMOC+0AGZzsl2D/LYKVHgvtg5ijX6mNhIvVjWv++vmwPSwkpvXwX6hGw7mzgEZ34e7odZ1t2EyEYgAfYlOBXpF6V01+I59r4mOlkf1ir58HNYOdX0L8CSipkY0XflS3YgL9Vke+26MQKZ3TtI1q90gW55hX1R/R+HBCCe7aR13Pzh03vPkzxp+OYE2ISU/ARFFb2gJpdz2fM8v3BnCMyc/9XcoaxXbPFH0WM5TsZ6V/HzMLEp13hrt9eWpbnK3015SKSroTbkfqqp1+CD5xBI99I/bOnf9BzoxYp/LJW35lmrdWQ+WELdcIUvASZ/jV3SBiROCzVDiNOcP5YJkY88ZfEUSyCJraiGeAPz3cNs8Xljez4kfqKp19KpIWQZHEalvY3HaNfTWJbgQTIkIj+sp5DETP7mNZfMVY83sMnccYOYS+uUJP9VhXU73u76d7z6576F3NlGzAEvIJrY9hWrmLv++en/b0dMfk4J8vquiMoS3g6wcavRZfV9UdxlvTMjLVYHDH4zO+kvk7ddhm0rdBJSjZYOXIXpJ6oHnUJ0hJ3BV9m/1LXqUfHsC3akGzm8ukG9Zh5jCU7i4MR37fRsTRni79dJNRgZ+P6++tj2BZ9h2EnSvJKrZ4YZ2zZA06TOg6rXqXVvzeS5+g/7I+J4OzuTsY1CQvhCUr449/MleLiXJzt9zl/phTPZxUmJJUhSzeUcbDCslTfk6Wy26jIK0vygiwJVkkeA4D+3iw6wFViCd4fTicUvTBb1Ni373ztG+M99X2XKXQ6oKbqRZcp5VLKOC9qpr4/W1yWN8AH6sVZXLLvXVQ/oNnOMWMx85H6eUuZ2In3QdFnPPZy9Cb1Lk9cIPItTtrI0zDS6s9jdA35kP8LTqIXa0y9hIX+ju3T9I4157ypT86jjMfydk/9gyez1MW7rJkAVNyPRfUnWkrYIEfDLTbhI6Uvzc0m54k6DJrjZmcVDxQ5Rkyv/lMdF3CzN1fyAZ3cTKvfyam/02JKhNtDOfXhVLEEFalXaP1C07XScDBMm/1Jg+vYK3ZBPVO9EkFE6/1Bu1PrUIYoXu+FR69wvz8X2VsW9wRmHc1A1i/OvKhZcKDV/mcQtb9gbNqihSz6m9PHOEsOtAXPpGYSjV9OMrbwWyLsE6f+FUkt6luJTyYvdY4nGVv47AHdwyCiJ2O1rE9kspaguIvjTt+ukNSiKgJWo6aNZVJ21RzCEq0KzpjRt3rqdzP+QtOOhWFdfQnSVl3D5nBSS4JL12TzlmQ9Mt6MezCzrG7K5i1Jw6KMGVS3qVsyWUtwr8WwitSj1a1Jxha2bd78KPax6pFpzhYH27g4qefz+DRry++3FSxKKJ6QRViabwuNjxWpj2v9DQ62Jb1UMGUXTb3zCMoSbku7a+FkN5SrvK9ofVcWYWnO25ZjpFDdPY+ydDvy2oB1jlpO9mrhNmY1lToi/lGdJWiLoI9Q/FhKUZrMZpPdy3D58aM0l2P08pQoLRnKlrqHsrOU0bmfOErTmeBLUJqSvMJEJXC6Wb0RmwSjRvxmpf2knHKLm0di6i/wNifi1TC+deOhgPtZh7O9TdCvdWgZYoL8OYc0Y0qwr3NYJpfzAoouS+YNDklTVmkZ9i84nG0qQb/RoaWpBPmLDmmaSrBvctjAzK9FY3+zQvklb4ctzroQiUxm6lZ18+XwVjVakfyoUoyMKin2AJexhc81eRkXOwR9uJDNW5KRQbX6A9lrINnN5i0JDYIqMxOYHrNI1aq6aJCn9+2PVNfVocnb0or6oDbZ9aTbjiEN/Lktwpgb7yct+JAtIDaCP3ha/YXNWheG/IdtvsV2iJ8QDJ8ntU6rf5xDm/arRHMiuvQZW5TtuC2qqH/vinaGo4GrujadyI+oPmtLXLfMFIL9D3NYqwSgP2fRho3hH4SjbYTzeYuPN3yqqJr6IQ5rINu4s9MovF+m/iKT/sMWbX4121B/YHOuz26maOnd3u5wzKDxfPPqD2WTjzPvmatheoGOcLSZqZb6K+7GgzG6vdbfZS31p7LAPuqhQO4mV47bxsv/QVmQ9lI1kOuFpOClaUGJds6ndg7T90M6ZWV8iU9o9VMZXIda3BC/KoOqpJfFP60JHzI+Q3WfenWGqoW3EE4PwsDcpNDp3+AUQozQ+C6Gvq3elkHJj39X1G+mfSVKJzfDn9bq7ZrFEl+sdihSHfXbmaY6xNkm+zLLv5OlrPfJ8L+xSb+rycQlmRG8U8JBXMWYPLssUzvqy3XhQ5kGAvNQNkDJZkXzuFaMzJ+lXa2mrCP1yzn9qbTITAUSMqFC9bac+h/a3q4YV/zFnn6/y0ssEm/IXsG8xNN/E8tGggvwUD/iqS+mOJ8DP5j/mmJqjNTEBfCkuBFN8KY2Wy/78H9LsdS3uH9OcWW0jskyXWVf9fT/SsvEJUvuKF7hqf+dKWKY6lWe+m9ePwkrR9hw/V+8XdQDt1EcxAh3Tj8/RyzgyDeSjqv/og22i744Y7Gs/jvzYo4tl3k99lZNKOphizdYnPRAvdRTH/LGLIIjb9reornQ3QLPjeXWhRqb3D7+pXp5Tn2vN8KnRXEPhuGDhvY9OcZqOudcVTxgzVidC15GYDK0ZDf6aW54B+GkhQptstTU7xBLk9W9u2fYvTun/l1cl2Yiooey5D6VV1/0HjQRZXlSx6EfIYZYDPWjGXTZfnJjkYmxyIqVQLC/OZuG8Rc53uWpH3fl5f4Wp6YiDCNmiY5wo2RLquO9/VlyufmSnPoZVyDbPFd5LMTXOMz65AArZtTqIU/9W6zRWYMPsP0XRO6M+ucRkSwQxOC6wZ27JTPVIfmsY1cPZ/2BiOKlOfUih/MPRIb48Pr7HaaFZ8HuclgPx/vW4P9YTv+AZ+a5PXkwtsqR+ohHHMGgsWf7u+O5kt+wJVSwWhWpj3mcoAzSkp+Vncqgf5N4pFvDmCw5YjC320Pz3kAm4r9eUt5iVXGg2uNYGBN9yYukJNgLsdfTxkS0ZUV9X868+8IUv0+r/2lJOoIx1d6v1f/K4AhlsfWqF7ljTri7R5RL4oruPuIHcoOhRDZ2aR6pVQfY9//IVYIc6tqTyYzs51w2lgW1Ps/1sKlVMyVydW+W3j956gtxkWNo9rQveuo/x3hbpdXfj7CjX/KoQ0SdBVMZiqrL3H7VyoaDuz/e313FIKBw6hU59T+tzaVAhhoXvDKnvoegGJsdunzMANZLeVbffLRkzDqG68k0Z4tLsqLs5uUnEa9TlyAtcTk0AWEm0SzQpn0CcuWlWEvuRxjJKvZsah7NYn9umMdYstrukPHUhiSQ3Ejicra4PhObhpJcwOBD8Ihs3pI0N1lhc5/5ebx67FGcJb2PlYOGZR1GHMnHXYq15OcIIwwI5Jvv4tCeerJ60hGUJXyOFUJA+AJcxKaiv3EeZenQO+JcZhIi8VSeoZ48j7FkmyOjIBK8JrKp9Tdl8pZiyz6HFh0gLq9uT7O2fLCNmqH50QUCSWYOmaroEqQlxtSZtierzIFWbC5J1hIc2LGUkLrVi7g+1A9KgJJF+WWtX6KRnNFN0QLKXqYj46mknxO4X/0s+4ScfoJdltYOomFSX+voCItExCQ21Ru0bbEjwomCjTUBYPgrjpCJYp62CNsGxqx/O/vXVoqj9zD5Ne4cuR01fug0HMeLa4WrJcslsdYv8NQ7dN+9JHmhp/4g3gltwFfQNTMDG24fLKh36zF1ibmRNev+C1r9oQnnjo48n/uMVu+JC8QhEWsXE9DLP4rLUulWRYqMRAg+q9V7L6Uopo/UPq/VHxsClMMYtAfUXxpZ9PFdptwhiRzdFZicsYpj/FSZANl1P25d8jI8aRK5yXycVn+bMpBbKOHwMAw+oS+EhwTjzp9Hsu/IqU/qgwkepi/bT2tnSrQWef+Dlp7KhkmgZqcUbk+meKLE+mSAD+j/6G4rajgKETuY/k96xnRL7E4kr16dU/+ZCaGjO03uMlindBTfZIJdJJAJTEe+Dz8jmqVHgxcT59oMB4bBu3LqZR5hyZ16iAE2qFfk8fRQCuZZZpnuOU16t6d+wouG7BGc4OI7gVZ/HI5kuK/2+luMxMTC1jv1miyPt+XVmz0JzrWxOOrtefUrGaKae27wFu9ASMCY5t+YJ8gUY8pYnf1dRibu9Z56r6d+LSmTU2vpMGCTp+QDHs5PXCI4CiP1prx+exbLpvgerX4rQbVDggboslHGV+W58ohLpCvm5goHO69+O8F3mOVxA1NBxz+RYIOtyR6Ub8nrv2erYUs+REUu4g+qz3jmMUFgLoU4GqkX5jbRKiZiI65LtwbSrf/hHSkB/Zk8VybcDrEirZXwL7KVDKQUkX9PboqhiMnPoOAr6gU5scKT7e2AOduPRDYfyqv/4LGFUi9eXIL+hKf+yKFjN0nQn/YQ8+6QvVgILRf1jrz6Y/qRuVim+fd56AxbOC7lmz31J4ycMx6+1Dbug3oor/7Ss5qJ/hglZjwPaTylLbE6bRusTs3fu/M4RlOLtW7BivobbzDZIm5OeDzL+1159bfw5pYHsWdfVTDjnv6U9W+KsD2wXg6XcVY4nzbKWJzNpsNNYkWRen9e/aMZhZlBM5QP59V/wmnexdFKPnbxXdyhxSj3cYvvVv8dgaBAXHRFNMQ0Ku4R7E9ZW1gkmUzl5frsX3tkKdS7tNSvTeRLK8rjHGGkmKsLVnqLENSyvFxV/NcqdgN59aA7zTV5KiH4Xoz06vb7Wbluw0F5RybZXoItmA88rzbbZ+0TjgWTLxXLZxxi0SDME7glvFN8YeNBWwfcW0DaxFuG+C7EA7WOjJFLEdmfmOLOrSbUVhh5cEGmisUWhlHTVrP5Bdtuxe0qc6cLD6ljLDgpyzsHLK+xxYBe5g2gKG36y4j3eFrPF/qUHMLqglGB9EVivG4qTvFTHu+Dx5FSnyKY5OSAZ18b0J+DDI3YrcQeWIr3eyq3MYdRj6lXA3n7grzV0SdoWr6nu9aW70+nL8G8FFltVOybrlz8mC1+UZa378HSWgWLcO/H4rfm8mnnDNY+21qcR8ZPtpbm0cnbruWNalAt1US57EO5SrEjz39W4pd1x5N3bieSbwhLU6YTvaNjPjlPY1q/hOhUSmT7cXleV1xCdnl2V5aa7QoIaTAR4VUO6Wom+Ksd3rSYYK9xWNtAgr7WfP6t0enJR4P8dqfqS3vXWVGWm115QJqZpevr1fQp4w3yXjHO3CgliSBvkqIk9wjzuDB5eHizycbPFW8xOdONTrXZkOZvTV8GPtKUukeKt9WOPkN8tLzfSht6bKy7spcmG226Sj6YWSVZEp9ylkqyGMCyfNngkvUi1KAeUF4ZyG6WVMzw/jC858p8CoQpq3qGj7Sr3poXfm4pd4QrB292CY7Z2U0uZflRWD4snQ+RsB8O6FX6TvcS1uJRQZ5h+/FL2DoaH4KUZQQSM+kVzX7bcg1AlmH1SVhdUu5TmLLZcwXSM0tanYW7xn2Rd3Lm/Zwq1ey30R2z7OaeNvaZpLFMuU9h2pggiaTELcV07AvjvnGA7DvST0HB4RUb3mDGzLzmZoRIOc6ynX7OU/kDQhMm83lPFXb3IzZRyX3BUwuWdSch9/RM4Fo4Pk9QHxtrCTZiDh5O9Ay3kI0gLa0nLNkwJrgPFelcRKdmHbjVI0i9Sja+kIQkRGr2dWHHfuVNO7psfELHv0mYk78jtAxdwELYwUSdMysfFc68g2mH28orjJGR3Qzo/iDcpq+sg+dNdjeH4Wrf/pS+YcWb28pWbyQVv4xIsw/iC+XL06l8aqxV1lhr+eFNu1phP+kF5mv8PbpB56uNdb9dxbpUazVrU2xBbq6F9EGP8vLxENxi/BeUgWW+YTJsiblReL6/deh2906YvgnJz/GsiHCWrZDHdviEeZB1f2R5wTiHS5ANM+X3zBy56lWpW5jJpD4/pxayAlrcm8o7M44zhleEk6yWsr1cnuuLRXs5iZNYGNs1o+s280ptf6Nicyj7XOWOdEB+1mU+LWXETqLjH1UhYraDRtnvyS+dQMzXbh3pKPrMcpUjgcmuaD105y75xaDDvjCnvWoGPc8EHjPp04tySg6kyO1rEHeEUnnZF+SK/uJTyifLpb/aumu+nGJxNOy3QN1HRZX5xRmplmH3/AqqZH984BU7bILrfgWtgkQ+kRr07B/pkGI8mi5bpLTUzeLdu+f5+LHKuc/DsmS7jXKx4wPaJ8SygZHxbLXUYM39JMXCGxzSUSODcmHghtW73FmTk+kg9pUEha1oFotl2VhpRAW++GYdM63p/FbY+p04cgbZC/wajokpdV46UIGuiqSc95ttjCtBjkSTqRzo0XMPL9sAdH2GRuLZArohZutJJ1lDew7lRpOtM4TCDONlOZUbbhmeecs9Uj+S04XINB0OmgZHKcuoY5/lsAYWd9AVkEuYKTY7bnInu2x5TImWFYQHMHfDoa7onGv5QbldNV9vU+WWTJp2HzXzyoGYyNzp4kYxoclL4IC0cDowMl4wnu+9glpsneusG+TSmpjY5cCgjwVnq8a5XTnTlPfnQMfb3UAwJ0pF83m+kxyd5Nu/ZiGeqsoJgjCcn4kdYxDtw/K4sILWxIXsSCTGohYJbsk3iR/2hSuTteeQyMmaRFm1XgfrUSMII4wxmiNANA9um/uc7O3F1GtyzBD7DR6PSD9+xSg/Awgb+0RspuTypbSCyhsv1KwU1W2kGZ0cFdiOejX7Fb2c7cPYnla8YyNAw+b1GIZIDnxY0II6dpkusKlK+CI5q3MAZoBvyKnlwTzqjejVPEokiqF4U07lB5MHx2yYOHVJYwV0MEIW4XjrMMUuiHgQ83TWtEHPglqUl+rTyPS/uV2jHJ1bqqS7ihTYgen5DkiftJSasaqCUQbEoZy4YvHoRIAxxjN+1L3dpjEwuXW/SDFQPricNFT8YW5VMx/b023zzUq8hHkyzxYrW4y3kS120sJC1+33tCFR/n0JnP6OWSjjOKhXGMrep5ktKr8ZNbIFkfr1nJ7/6VzExOKcyseXdiF2RhABFxLOvuHiLQ7TFjqguQNn70lQc5fdqG1SkLnrzrHddNL4J27gJeHPAmFpNEAqiKeGI0W9hV2JiKwTYQdFfjHp24Y7QHSMu8lcM/B3sTmXJ2NiODDpj4qmF7Jz9h2EEIgcOALZ7dOfnBcNifJuSbsh7hNLE3GmuA6kagMvN8FkR8mdMzu0oblP5VMa6b0dUGaUgbm5PHK1Lz8dlrttyg2btvzwNsbYhwpLEpYZXTZKvnxptP1Y2iD7O/fcxKe2pgQRaWzF9neV+2UpV8v6OOtn2rcEbsVtqhMzI+NY4kYkJ+dxG2Le1Kvz6pSZMCfMd3rqCti55tu0PrMxsbjH3IthIsfd6ag6boQPcngCddU8a/WWnLp6HmVWN7N3jWksuDDc60xExMj32gRVOizumrPBsroOEdo5j6imr0+yqY68NadvONJVK4VMX288QlCNVf0gTDw3CX/fNN/bAEpz6H3EPD45+t48j4f+jHHObkmUM4BC7sda5g0EoSe3oRPYzvxyIf2VKJ6LW22V0DxlUYUz/rn411tsEGca+CXEIRqEj2o1Y8v0faXmfT1cPWCvFdxNkmNH7ZTXJYZBLk+vHFeW1IXwUPb5SBU0y8NgXVtvx+qs02n7TNfz9s3v1sxzfQbr1ZESfbSWk6ayf8aj2TrXq3TFxsWunCUWGySV9a7Nh4MumlwdwNdLUKXDBJnbJjZ8xggxH9mG3pnjvBmTWsIqsjwlJsZhYwYWv+izz9qbEe+EG0M03eoayJsNZ6gmLc3i98C2IP+gXOyjc4UdGy/GhoXCqINEKF9M6Kvyttg9Il7aZt2ilVmceG8HrBa5ijvGJer5Ieoq+xv5FQSfmfjjpoUNa8GNAE6gMe7lh5fbN6MCKwdmtChwgVRBcaiAMB07qFyNecNWJE9RvKV9MzYdD1o8m7hrufmu5C87vsJlxrcwT3nWye2ogGIpLm3QHbliw2fa6o8P+pHcYoXujSdbzx63mCPXbRahZ/KVUBasiUrbSmtWC/N1+VMybJdbNrr8JKVtuWFam2z1zXg2lZdBB2yerHb7IbTBUY6W07p5j9PGsFJ9kfM4FwQXiBpAwyF/z6xfuAZHbIt5LQQXd+WamF6vw8SztPDDD1hQcndgfmgD5NrVO5MZFw8zl/UiDnIOjm1AUtnOZmFic47qazFgnq0BqsambjJ2ZXlXrYTh3+NcOqsO5Ic4haTNILVoRVPRtm5+64pDvYpziS52Jnu7E1y8LSL9opH0B1uXsYbgULh5nOGE6k3dnV2MF4uKj02wA+WcBOLglLkCO28reAXLpQEVXGlpGLWQA70QfUkygagUmBwzKkEF2VkIG+l83wxDXvuaDT2SlcOs4i+xGyCgQSAtYvE28WjciCrSjhN4pD7E8byTbCKJw4cVTC9mVNsnJGPudjTSMY639GyTaJAdDdZwguNgGvsoLu04fDDJeJdMS0WmJQcUTyAYpm8YrVvK6rgRPnhkCMzjIOncxySEEocJZiJnuZ8WrovVFB2LGjFHkjOt6KPNxt0L5vjQuyjmk0HnzW9y1aex3GL3ymaBYc+i+XXoVq7TS/PrDplilzdnnSCugeiiGKY28zrAI/ya9SUfxHXaZoibmDmwQtWclrld7xOfIta47eqgaAyjHI5GRIKrgllIMJySDWZxfk5bZqgqJ98jJ2Bvzm6qyN2CBQkq1OtVgvSS8earss+ZFytIZs9wQWDyCvQ8cyqv7tmrYmXFDAYyOcR35WeLrMbIdCyWuB71o1msdJa7+jhKdSk6gA2XwZ/hlJdln0ftsV8J/9zmvB7GS6HKyVK+FOlFhj6xd7l4aPbXyUzXpU1Ljy7T0SDpkWPqOhGpz3H0meukMcNEllMzz01kzG1VZGlZsg4WqJTIK1KfzelFyogn2U+TEFBDETA5CJydh02lY/Pehpxw0rCTHDvEiw8HZUImaABV1kO8us2wP2NKWf++xNVMiEyVuCVKcrrLzkyj0iHvtoiW6TPiXETzY6b01HNOIaFiicM8hyUuG6g9MxRkVzS753tZzbv0M1Tvy6l0MagH9NJkk4YOGCfGbnkQsmOHDcvzGLYA82A2M27Kc3rFijjewCL1gZx80NWZ/qadZO6FcvoETU3p7Yo6aeYsplm3hoCVcGoO37rMlkP1B+Qk4Uhi9hWRLCb1yj1yqdJE6vM5fdVWZpa+wAniYG4+/imnrmHZn50SB0N218rnmVfx4wNmGyXS6rqMSYpNW6Q+kdPXz5hgZ4o+mVM3SDZIpPipnLoxmZSi2ToCJuqm7cnWftQcdyB2dTkO7CTz/8Uch4B4eEG60RUN14r0+MM5fcvB8DLb2kdy+tat0ZDpQUwr6pGmKbjIwwf07AF1WyJJxidYfxSKz2t5YAMgtzOk++PJ+FC0oxujjGMChCHEnHDGiWyrbLIBKkH0q7+3c+9+OD3MBGXnXPpGhygLt4pcIJu/paZbte6aibvgBc1xwFxEbNHiojZolTY54OxhmbATmzH3L2NxpNT2Pkpm1NObIxTYBOecOWGBWGHjjjF6pocogVkT1p2V2XFXTUvs/vbaBhs1A98Od61RtzdGqCTON3iTzc2ARD6LKk9DJTlnFHD45LZpkZgV+txmwSDvQQC2AzUD290zlRcjUF35/CB+fz29rsIEpV2ggmguRDQuFYBY2l+bM3t6MJvs4c3DIvFKpo3JLkcHO35vznwMo7KoOFFEqUEsxNWwHZqnHadcXkjcpGw0rjSd9AdbdIqLwDnqrXm5/wtGeUZfp+r5efEqXTvqRXmMcbzgW1m0vRtUL8irhTqMkYXyHi1U6I3ONuWx7g1g3mM4rVDv8LRR6zj/JSLaQ+EtHbrsMvjnnLrNaJB6kdYLApX6EUbI7lO3yjVXf+TM4WJ/a4suqLxaiiRUGeBU2pLlON+Rrj5LHYvzZbwEGjPoZ6sV8xKMbhfUcQM6jSXWYrKryfH1pG241T8cIWoQp6K5RSP3t1/J6Ssyg0+WxFdz6sptOG3YgyHDuMpwr6JorDL2ocPm/iwSUYy3RphyQkGy+aELVxtCeWxtTMg1aArhKwzliD1z1B0PxAxtXVAvyevrDKodZlDXb8Z6EakX5/UN03DL2sQg/M79EI1zMexFdaNppzRFDXfwuzmor9JhO/SbTJlPpIbwu8jtLZ56xJ4cFg7HW0XmEWME2c3JhxK4jAzNMUa+W3wLDuzsUJ4/Vu3dYY0uMYJHbo2Ge5vya6bEarfD8/wbqU/n9aPoHZJ0FiSy0//SvHq0fxm8Pcs4qR8xPEdLkltsT1TL4hLqjOpaXKReltd5+UZpUV6XZ5rmqHieETIn8Qe6YFkZbm+Xd/Yl2rKSssIkaG09wgXlDexX2hoUszrwEozTWxVOeQs7FS7YXJVBsl7QPYS2sCXco6L5MStq0tlBIQRFE4ubBBFFo1Dv9SErbLq1c0gTemnvUtzy5YjXGJBM2bG9y+NXZHzxCvAWxgwhHiEsrd2XVcsYnRy4wsrrnGRL0p6Q5TcFapkWGvMcCnuXwy6046ewRvmU5/7iXaVHYnYyFf/paJ2QVmTdecSkgNdtnENP40LD5+V5fMO+3d6F2iDVilwS+0XZFdVqrVmUvVMHHfnbc0BesVYtmisyc40IIB8qbPuB+yPbhbq5BF3IXuAv2gc+cnFPbknuvOI7/+VqYwOOQnUs7ko7tEfptEtLX7tLSU9s24Vs2wtzbS9m216KGyyO7WUZ108Pc7m+orxtptzlOLpwL9KPJMifNy6uxT9HFcKLe1PMMWvYol7LprHrrsTV6/PsuO7NqcU8xHXRNuY4ENNsUW/g3l8altFbDDf78uFNxzeJkKur5RVccu3r/h6yzWomRP6qpX1zZe/czFW0++PslaroC1Dev7dbrMl8FhpNrsUlR2aBi3D5a+9G5ItJpse9cUyytNb2UcG2KSC/nM1nCY/ZPyO2YqboOK2QnLCTV12V3pykVsP+QdxT9Nd8Tq5XazbPmJv9Kxq++zDrlVV60e521oXyqlQiKHmYZBLxvCav5CcJDl2cnt+XHdYE3ROlr8czY2LIzLK9G4UmXRjQ4KsZfKRel08fl63G80ZtonL4zJxWqKn70aroisAJF5lNfErDRu4m9ACEUe5XQkUn5zX+VbgmcdUgNM/GqT0UC6nH1jbiis09O0nohcmGtMNtk2bIZl9+c6bjKYFPKa6ufJBGPACYH2Ro5gZgXiIzV/I3/gKC477ojHlHYkL39l6X0MD8o0bPPB1MH+/l1swKzQsXec0jNAXzrVCTJbcQrMtfEXc5u15dZgmlaZoPMC5bqBfbgmP2M4lJfsXlY8NwPH1seKLMWNm1Z/2LLe6stuXRnsqd9eUTvQpNbTcRBCMZNqVvnn1y0B9tsNng8TtFwDnS8iZAfkygavENa7HdqZaNmdHyV8rtSvQaxQ2SXNF97Ti/Ln8XqbB+J/8urN/Fv4vrd/Pv0rr8LaTl9Xv499i6HLhFUCvJ9e7x1SY3vgKdYNmzvAPAk0Jzal2wV2CDSa6cux2+yrz2ubor/15T9xtd0mtr8sfhrqsI7vpKh39vqMiIb1ytrnUNj5uAysWWG8Aj6pyZSG/GZpDcIpbzVr/Ov4+UWTAW+LagzowCPEp69WhELXwecy//PLayKrUfVyyVpJuPd+8sntCWlr+uLQP4emePnyh/cZj0G8oYANInYQxIvjEomr9b+OQzJennN2HpSG4PjIDukMHcKYi7ZHB3u7+B95SS+RN495QqMjNPDVrGRD3NdOHpZ03yjFa13LED/uag2W2bzwI+s1qX8XwLIRAZ4bNqxZL5A/XfWm20zF88fnap2+kYuRTtAxqgkvTf3c6zMjrx5FWArQx9UeMi9hF4tdntWF5r3GVhNM1MrtehkW7J36OvVezHxU/X/DX7UOmMmPG2/FpFPSdWt4a9H7u72LKXVLapW0vFBksQqEycrlXzmXaaFplX3EKtNlaFge8GueomeA1NlW9gWz7rxIAsVA38Ytv8xcjT2bdFJ1J1fyTrrFtvJLr6GA7dnLMdp8dWqvIEumn68PhK+mXsJ8SCepLUZDsA/EY7AU924rxdUrRJ+nkHHo/04k62EGn1KWh89oPrT203z5I8jSRm/HRg4W169YyOvO8CeFYHb6JkdKuYTKcur/vlM1w7AnvyweWybzQ6V7MvovJ0uut6UojhTJ2FGCe2T8S7mMz+UjzPts3lmOJYUG5z42mxK+YzlgKdDFrVRtKvU/Sa5EoSlNgo41WiTbbVqztt35dWga9hvktNi79WRkB6ncjPoq6XDpLeIKlt80bTk1hYN9GEkAM+QtiS3iypY3WLSA0HArBU5JpW6M7UmjJbtXqxfW/X1Kjbx3JA6FndjKdpqCvVoiVuJdC9VrFs947b+12gK+ZM2G2pJXqUm5JHV1h5Dvc4v95ax7ZKi1+36puY9Ndjv+zCfiLLx2+bv876DdVGQDdsrW+KV9tdos/mNReZe4LYnn0zNobJsa+/noml4RIkzn4LNUXc3yrjI3127IK3RdPQ4t4dZII4cyeZTpy5i0w3ztxNZiPOPIWMUVXJ3EPmPsmYPp5LLP/9sofYqfu2dIf5dlm/bmmT/Q6ZRr/nZPUAG/CaMSa9+pEfT3l6EA3K8pNb85FE831Scxa0Hk+IbyCewzvxHLJFPnh8huQDptuCl5OfBITqEw46QwJCRw/XubK4yS33SynluY/iq/Sj+GR0hXiheGnzxDnMYLEs1uMy39In55Uv+8stYnPWQirzK4lO+vfHtQEEIyUgvCLmNfn9VXocKMwdByLK3ZtX/K0jB4Lh2MEF4nCGsDid9h2jFV2Ya0G8K+Pnyd9VSE42qB+zD6BjP8arminN2ZL4BVj+El64cDNh914cywPT4ntw3ebIzE/u0ln9ALN6SblPIVPr9WMkw3T83ge/9T6xlswv+GLyWBN2suXyNbZLamQ68EE64BNPMX6lC/KFcZ4KEtz/KDTRuL8X7RCgVx/BcfcTCoeG47bEiSxxWiwMKItM+rFsEe0YWX0cWY369reeKd+OFHGZmJxKcXEDzo9+x9hI3cWIkHpJ4DgXnAus/c1j4ju9Ykscj0KzYV64MGvkFgKrki38/JAzQx/JytzCizM8BErYmofJJqv9uQ++MZNs8T4F7Plm79dzDK308oSdRtvVgTql9Mx9McHkuBayuQZyYrAS2KYDnyDeWX6Y+BPcbBxCpnXM4pfQh8eCzkTmmjbks6lyJjZWlXiGxLYePpCXj88S1UGTE7OF5QJFfgdNV9Pf5pDhaI3q2WyG5t0awUnES05fG1IuvS7KZ+h1YYY7jsaOpTkmlSCxrMzd/kWS/CDc7u+PqCPqvKwKl+diizWX/IbVgclyb5lQuxNf8luTPYKAXEANzd999x6Mn4jkhgTpCRozaqxBONuS9ySFg0ua4kYwrxcS7qti8MwPHMO4AcYuB1hsqJf82XmmkF5wuURkLsMTzGfzurAfmbOpHF227C+v6YZrw3BoW+ba4+reYuApV/dJxo43kFayxAZBsdDGsCW1NQ0uSmpsG2RDMtSJpNCWReqLLGZTMUbE1OqfWKyGVH0ppjHLId5SlOaqkbsYuTc1YcWUBC7cDMmHD428dMTQhYTbA1s3Ul8mFifCMZVQ82hrh9uVjUTGbGeMQH2BpqeuZ//MWTy07L/Cmvk/9RkAAJ2aC3hU1bXH9zlJBggvgUDCs+Ep8kgAEb2QmVDqREWuFer1dZ20qAgogtCJrwoiJDPRxCq1AiJWTADxWbTYwuRRis8KookoFMEiz4lgqYqCerH3999nkuPtd797/er3Hdaatdder73W2uuc6DiuSTPt/nZ804z2lSanY8yYFztMmR6dMfn2cyaMGXn2FZfNnnX+yHNvm3r5zaaLyTJOV9PT9Dbp6Y4xrkl3Ms6fc13JzdNmR03AaX23MaaNaSfAfxacYepcYxxj1Zi+Jt3NuHTq9Gm5I/8v/i5COzq3aaNrN/bTxotmR6fNmz11Vu6PZ8+6I/dHU2ffOvXnJmD+fzG/dDBgwotWlIMN7TOumDbtpjG5w3MvmzEtd8q0G2ZNuy4689ZpuZfOmwoSnTln9rR5rJ4/B23X5/4wL/cn182YM3tW7oQ7cq8qmR2dOXt67tUzps4xXReX9u+S6/Y1g8uMedA9y1popkybXjJr6jxjhjj/mp7Mf9aTXm4Wjio15vYM14mNXzR58cft2rnxfaHatBndI9H0xcZc2op/TIYJnGuc+F3t9pVGA3luLPNIm7TF3/7jx9/hODdQZAJh4tosJ10+sHHBrQ2HjOO4sQUzbvHpTmBBZd4QS/9sVqlPd1N0143NmLvcp6cFFqyu6GacNDd236BnfHp6YEFjuNA46W5s48rNPj0jMN+YXONkuLFTF77p0wOB+Y3hnZb/6R67fXqrFH/AjX382gGf3jqwYETiQuO0cmN7dn7l09vInjzZH9+V1cqnZ6bsT3fjWdmdfHrblPzWbnz0J119ejvZf4GVc+G7uT69fUpOGzde+t4Qn94hML84Otc4mW58T6uRPr1j4K5UnOOxXuf49DNSctq68c19Cn16p8CCaENv43Dc2zdd6NM7B+bnRKLGae/G2311iU/vkpLfwY1vbP8Tn54VWFCUjRz0jph4jU/vmtJLHGZNusGnd0vFoaMbr+x3k0/Plpywcc5w48fa3erTcwLzi7LnG6cT/s67y6d317kgB79m9I/59B6+X9H6B3x6T9+vDacf9um9Un7BX9x5hU/v7fOvnLzKp/dJ8XfmvG5Y7dN/EFhQHB1pnC5u/Nt1z/v03MCCj6uG2vjkbtzo0/um4oO/Vye2+PR+KX+J28TcP/v0/qm4ZbjxG798y6cPaMnn+IS/vufTB6b4s9z4tS/t9umDAguMucXaf2enIz79TN/+UZd96tMHp+wn/lOu+8ann5WKf6Zb/vd7XZ8+JBWfrm75+b9O9+lDdS5B2Vl+zdE2Pn1Yys5ubvmsy9v59OGKz9XGyXbLDw7s7NPzAvMr83pYOWeUZvn0/JScHLc893g3nz5CdVqkPCnfcmMvnz5S9vRWXZdfeF5fnz5K/NR1Z7d886RBPv3slviU95g91KePTsWHODxbMsKnn5OKQ3e3uWt69HOV5/9unB5ufO24oz79PNGxh3Pssf2ET/+3lF893fjY1V/59LGBBTmRy4zTyy3fPtL16eNk51nWztdGtPLpBSk727nll5/XzqcHW/K8/MQVHX16KGU/ciZe28mnF6bk9HbLd8/s5tPHK6/Ok/3lg5/s6dN/mLK/j1t+Xuc+Pn2C+Mfb+Cfn9vfpP0rFv5Nb/rPYYJ9+firfOJfVxcN9elj+jjRtHOef7kj37mjDOWlZOxbvf/1U2rAbznvngm4Lvjm6Kq1j4KJ0k7EqYNq5jslk1mhjWpnWxvyPH+2dDnc73PFFZlHjdX9b/Ov/WFa6qrZn6ZAlN5R+OLO2dE+PA2U7RnQqu+zeAWVjnrm07OAld5S9c8UTZZes31C26sJ9sdcGp8duvf+M2Lbf58Qm1AyLXfNpYWz3nEmxEY9cFuvXeXpsebdfxN7fUhpbvmxF7Pbrnow9+Eoi9vTXb8UG37E7dlfV/tjXucdjl048Gf/wSEbcnOwYH/tV9/iQn+bGJ54zMN6vz/D4hBMj41dfGop3fujC+KiqKfH6KdfEb5z+s/iKrjfFE0fnxJ++7xfxb4sWxvv0Lotfn/VgfN5vH4kX76qOZ/V8Pj5myEZd8GbRqEPTFn/YfdLiPb94pDSwqV/p7evmld7V9+XS2T2/KLt2X2bZwV5nl13SKlK27ae3lF0ZebSstfNK2Xkvf9yFsBEs5iFnoePc45hFjlnsmFLHlDkm5pi4Y8odc69j1jALvOmYrU76W47ZDodrlrlOwCHAmp/amLbNw4c3YVWaK/vaIYtR8UR7b9LqcXdg9+zebh/zAzPIQR6r4kjTP8yIjjnTLHNML9PB6X4PpJ5moBlmymAL/OBRRrPi6NQQZONWVzxfUJk3ttCtSe4PWqS6IhaqzMsMuZV593lIcfQvICxV5gUKLVLSMByEpaaqfA+prrgchKXi6M0eUl0xthANxm0M9/eQnMiJUE4kSzyfekhj+HHPjGZ7zMfMizmRldJXm2bMDItEosNZ3VyQVl1xOEiTDjaGnwzmJ04F04qjk4NF2cGQYCR6b8gSciIbQuIoyn4vlNryZaipaiiy0gvTciLXhyLR9pi03MK0kobnLFKU/XKopKGNOHbBGigsaWhC7X+F0hrD37BylMeFqyGEYa0LcyK/Z7V1YWP4gRBxbY3Xd4ZSYWxBqkJ4fRBpVSHEHkTCplBNcjfebwulNVU18ONDfmzGvCbp+S0/TiB2uYVp+Ym7LNIYvgKOI6G0yrxRoaLsDxDYh62viZAZyk+8CCETjkd1apmhRHKRt1JdUYSwXGAPEcagf2+wOBqBuD6IQYvESrxWWoj+5yxSk0zA+XAQ/W8QmqeIdSNb3hFhD8acxLP9qM0JkQkZhZGoozi7hSRTsKnqCyyMBFF3GKSuIBJ9G+sS49i7EWRsrdQJmrUkYnVFH+y+OOTS49G9QpmU5yHF0QaW2ipL0gotkhMphfJQyM1PLPSQ5u3GKcp+jHMmlYQgXtwDpMdDWPGWgFRpfmKXR1JklejE7T4o65TSrcgNlpp5zMoM4+gEE8l+tcSogghk1+YnZhCB5Li0muRY2DYXFGV3Jc4LgkTiQxL0bYK2nmgMDaUppGQt+xdBeMYjFGXvZds6CE5hWlH2W8GShiwyrg1cfUUYTvDyC2uSxZzzOYUILUddAZatsxA7XrdIU9VfOaIxhcT7FIaNQEYaqThQW9qSrT0gtIeL8DWGjxOstpLehNM5pO5O9uYWpkWiryJscEr64ELK6A6LNFVdgEFdJb0bBqUhrCtbtyhMPS1CLYxAagPOTML/PcrzGRCOYEwZ8BMRloJ8jqqnLETdny1izEHgASXPtyTcu2xphYY/qBI6YsxKCIK3eISa5BA0tALuD1I8/6DqpxK/A5TIhgLK+HVW82qbT8o7s6aqiiD+brJIY3grRmzS5r2IPkKeJHGC2qhJfoa/44n1Z1iFPiFF2Q8gMQmhSk58COEldG3j2SybEwjdylPNs1Ucv7JIJLoYWa+EUDuTvfXImIKWF8VRwN61cOUja5kSoR8c5bIXrtkeoTJvAhzn8vRUB5gE4WPSZS7GJYJw3MdKBaZXWciNk28cZUNl3vYQZyxkbciNRJfA04K0LG0PmZ8Yp6QhDHGQOrkQisSYHNKmBWEJdfCnEMrAwHy/j9glb/ugQhNz1bdVZ5SQh8DXXHAWsdK11II0VR1VIg21CEdcCGLoIjewu5XSNE4w1anXWUjIX7GIMbuJMBzF0eME0iWRv4FwTC01rbA4+h5y0mhLL0h6GuxYkBPZg9QUQqPSaewh6d5GwFZW9iuTExzPCTY/aiH6YhZpqrqJXMPE6oqJ7N1P7pwLgYtAXigbBGWmecvGYYPntRDrbE3yaes1At63SHWF8m2UyrgVN8lQbOyAwX0KOfAsVjsVChZlOx6hMfwR4jtQG68rTtryPPs/w/7HlavvE5YlmPmMhTjd1kfovepuMiAhH9+wSGXebvJpi1w6xsatSJOfHyhrTyP2KGE5zYMBQhrD7bBIHFm6H49hTW9s3k00+hYSdWXWIBx4ykIcH+0jRMILBZDWq7BzO+vO7IUI1koaHA/RfrvUzGO+5IrwCoz+JUR1qZuhoAVpWRKizp60imjfyWAiaSOa5EYbUphIZrKdmEeifUHGYm4YGFIazQSZgIflFhKU5RaprlCR/VCEZznj8Wx5AcMKC0noNYRsmKaHJ6AMx4GVhCtP0VnK3jwO734Lic4ci+QnriFcZ6mXTiQ6A6iyiUS6u+aqiV6UZCrQqKSVUkoVgqHcYlVFBPSQliUhZjVjU35iuX7Ukg/XWoTXaKzfWgBBs8idXDFr6IH/8MYmtTtBXXwpwgY8eRKO7zU2RaIvWYS7C/NaK84H8c8lST9H8Kdq8w4/9iJU9/fLSscPEPiyutr7RO99vH8V1kNKOnXWExBTk09j+G6LFEevYv8RJe5oCLtplX3gInE13zSGn8G6TIRWeATGUJ4+PIMk42yO5BMcuxILN+pmXsD+RRCWW4iFT1mkKPsPyFmh+eYVnHqBoGxn617dFDtRm46GD+Dspy6aRib187xTYKsrVBYPaZw6jJBMcm07W0YXsFdSxzIqeAdj4jSH/MQq2ElZITaJOVH2pJCWJSHiTmLccC9FWhCNdLg7Ef9P4sxlyGmUqT+F8FvGOY0aVXJmIYRlOHOfhQRkiUWY7TAId3MiKziDx1DxGEJXBSnFNayMHYd3T4AkNjVVPUK4Z9SQ50tAkjUlDWUWImy6RXIi5yMjQxdwX4RsLlCdGfMz6Vc2r8fCJE9rjW2eN+ZPlDU6WU1ls7y12dyCsOItAW3XOEE191PxbLGIzK7MO1OJGWX0H0pLFBzZTDjXcuQnxnlbjBkPxwkLMb0L8seTugNxAQ71c23xIDI8ZKjlsFq0RWolQ9C7RDPIa2vvauRhLx8gPQSy5xM/PJ+8drA/COVBDyG/vKVmOeZx8qO5USL0ny8PVYwQXR6NYRqZboJIdAg12QFLe4sjizbTkUeXyLcqtCxE78WoDhC36MLShPUkFujyYAQpyt7JajmWPGOhi3ffRdZ7l4cQAvmGRVSHORFuE10eKhldDTmR9yXtNCYmSdXT1CAGCIlEM1F+Apu7qJMeY7UXzW83sK8a6Pe/PA78r3mjft6CUPAq0jMtgrYxHJtmimIMbKWQLcbv9pzjSgsx8AmLVOZp9IVACSGtPbX9Ipa3V/xfxPTjCuZ6WI8Tu3U8f1eDUZHoJleBf6bollqEikEGb3RF2Rex9yNiMQb9jeJQjr/MjwFwEVwheOO5A6RR8bpRk5xH65tcS3Tsy21tdUVnPNo7Do+2kxa7ufYeJREXeb1c72aCan2WUF1xCTp/SS+YJZ0baOoaxj+n9O9X6+qOAUshFMK1Qgd7A2H6DT9i+PyEuu0qzFuNu3ojXRvCjj/i2TpseB3Cs4rsdtjX82wnGIwYQnIitd6K3iy8LYcVphfY9wXqHrIQYTMtUpMsgmib+wBYd7OlK8Q31SnKcegvnu3KVfIIp4yOpz+WteJEL0F3pqr7TmzWAf7KQvrg4xYpyn4BgbzuKPEbw5kQ3sXCDHEcgENZ8TcEf6KQfQXHX4j0VxzGRg0WQjgVOQP0EPVODmybRTD6DeRPI6R1BK+zGvDv4F1YkJ+owpvEWPxcgsjJtc2nyaxuFopFN88jFlFxMzjqbqoFeYfO9SoxadUcxjNxcjvSJjYHuFLh24rZ97KyBUJM57kJSxbj03PAezQGP4GwhawuhXO+jqAC9jshlBK920WYzo+olVxdcaNk6I1zKrp7IuPflRMal8bCkcnTo5mwm1QaCudz6u+TpIXs85wyz313CiE0FmFKYtuWAuKV5Eznwr6ODP7ay9xUfkO4T8cgwksIW0fm0k60pSb5JSYPwzmmEAnV2UqLIFGqtwiGAeEojp5E3Zf4kUaRI0OdQUIFrRYhUiuOlB0nsWEumuxMrM9M9SnTPV88r2y1aeoR4h1+nc5N7yKn8OwAAR2mjD0Gcg3PMTajz0PWokIc9TpZzc3v4+YbEJl+JJSLBTmp6YdPfxapSU7xOPjgltrSiwVk6DAk1INoESK1Hgd2aIsMkwxrqYTKdGkR/D7vbIqVbavfQXhn49OARfCtgLAbIn09MgOqRnWQ9gR4jYUQtlikOLqTLXRgvaclkg7FdwpDj8lyfVV7DzdcLoEXdN+4XGlYoA4A9BD7ziZEH5RyIgr/R8rjP/DjBMRHLOT9uNQimuntO1skehF79xPLMRAaZPMAODbzyON1IT6+qjBX8QNVajhAD+HwdXOvwTbu38bwBxbRhcKILt+ySLz+WN0HDzrKt8Gkpg5yMAsJXRkiLERXH7iG62R1If8OyQaOUSqiXVZxswE6El17DGMcgEVQvNUiulIYhnWU6cwq2XjdFsVXyevOyL+fwHZGLIqFUD143hZO6kJDvN7eirKPYg2zQknDW3gziBJQt0pdty2I1Jljtp4fhEo9N1X9p0VgofzrCjiLj5jmbuZZQ8ROqY78j7H6TGEJNcnfw673jp0ifIQTJ7FqEMmAVcpYZYfeVgUJx7MWUTtMJHmrqK7YBiEdr3Yg+LRk7MWOz3h0ph/rE+QhH8FCOaCvsSmEkOoz3xFcSiGMOkGSbL9FrDyGM8piBzCo4G5D3paCkoYacuzVcXiutwy1Ay8U+mq5FOtoBzmR9RZRlvN9U5t3cETHcXcv4s9UsR9G85W4fBhChUdQ15fenIgdyXbAoZawBQOOKGk0Yp2AsNRCttxqkcq8KcDDKpk8VpU4vVC7WYRM9mqA+s7LkE4sJ9ILbUP0kSAPji84jyks1CipbrOmS4uguYfhqjj6KWdJnKiUAqBezh9Gqo3lKx7C4XlBTSQ7eIhKMz/RS6/hz3hIsxy9vffk/JaoqgP2mC0iK+DuiW0pREtmNSYUZbdHT6KGuBwkrgneOOoI5xUFWLyMvHL5sQyrZ8uFZSTcc9wZdaTVuzoObfkaomTQ2o0ZbJHG8Di8hkNjg7YIWhlCuGa5d8PAnQVEv4C4juf4h7OVV6HG8A9AEjWe0ESNeYgBjc6KQIaL4ugX2N6dfNP3QeZZfZZX2ZP0FmJUpUWaqn4OHCCOS0By2TIW2F2lOBCkM01zIBnXxiPkRNQFR2PL18qACSTMcTRcxUJSl9gcCB9hUCkx3COOB3FoF0e5AhnvqUdvxsKtapFvQ3mdvR/x/ElD6ecISaDSoTnRVY3JpElUQ+wIXKIM1PvDAjiysHKiR2BKRk47CAkFVt/9RxL6o9hwZwEmv4VBk2t587QQQolFvNBfXIBaB9YenMUfifZT+gvBnTpPtMwgWcZrbM/G3fHqXj1Q1ZV9Z2PUCXXJSRDqyN55eFglgoJazv4qCyHUWqQx3ICWp4PoP8TebVioPzal60I8zd5+yDmN4Is9Qn7iFqz8HLWlCkwTKw+wX3FcqtDp3eQ3EH/HU60WU8aW9Sra0aRLHUfvEPYd2vsYqo4SYb11ttaLxWMMMTlEeB/ecewa4fMT+RzqJITyxZ6qg1BApNdaCMebFlGLaAzD0RjWN4Z8It2G8CMjP6Evg8q2zuQTV3JzHprj9GpdWdTcd+4uvcwIIdbeu6OSKBI9W1mZjshh6MrkIW/zE2dwjXdD/Bk8OCBEc3Ak2g5OXmYaw2qru4mmQ3Y3yOcvCNwb+HwII17WH3EOQdis9vMlaVmPN/r8ukHxasceNajOSP+1ci4HdQthz0F62CMoxZqqOqFli6q7Lfp1pXzDETUUkPN/hd0YnQbAcxNIl9Fx6MqilWiNO7OkQcyrOILPMPigCt1Fcxan5aIHhUK8L7vfkBNlyodP2bKUZx9W8GFVX4HIVFZfshCFo31E0j3N+Yl3lBrPWYRdWyxSXdEI3KUwHQDZx3OMY+VFsrriS2TqDVmjLaEWYkxX3D0EkctZdwIXLdWo80vdyS2IpJuD9Eq+HGD+5HqCt48JdHK9aoTpvZ5YPUqPm1ivl8DG8AX1dN0EyMk6jvUUzTKtnj/A4otTj65hId7V6/gUihG76ojDZHS9WMefV4Bj6+jmc4XUEN1/4bMGlIcpp6o6AnE/5n5V1xi+h5zpXk8nvDFU0nBOvcqxqepH9Rg3DA754TlmpulOaihAu8ZPR2ZI+zosfk3H8KyHqGvapaaq/h6i9qeh0CKYq28yD/mIXWqWbCdhmn9IYyw1o0nV2u00O5D6QK0loIcwBOltUFNDndLrTZYuJfrKlRfU7p7goJI1keg9FsKhtq8vaANxg5api4mrj2drkIkgyBa1jHQEPgbxYtWTECzQrNqCEJgQp6YpVulchN592jyT7FoW1N+jBamfxy2id3heamXiZgzYBWErBnRQQcudEXB5rpsnMzQJL8eASD1pMNciRdnhUFE2OUU3w7VgPWWPVf3rcSBBm8mslxYaQx0HcwaConWkX09ULa/TzEtDqENVIUiyrjKvGJPdeu7N+QjrVC91gqjbZBH9SYabTWmoZrKqTpC+Xcshqzq2e7ObEITshUVfGHfAskhXyrYQXxjpCrXi0EvnswpcgWY3QaRGLKLJAKmK26EgwwfVsjaotEOoptYJGKHec79HIIAIXgNHaowtafg+Y6xuJTvG1iS3QUinwt9DMGOs5gWNsdQMD9OrJtMWBAt11q29/BPCC3YteoSsJ4qGbppRj5S/Y8WoegWAv9XW87azCTsj9QqrhXZWZS7TcLTeIupPvOrqDlfuZoQ0q3KXqy8dDik+HsRzIYqg4qz/PQIZO7Dam1VlJ46u58RPQFhqIVtutYhmVW3HxLwQWYecXmhh/CBjWH2aJ9PTIkS9RrNqfmJ0iGDl8aM1VurVdW+Q7LnNmi4tgmoLOm9KUWPoIsaARUHKuQmhtkdG8bIFoRs0VXX02oKQkoazVNPKTG4MXXPfQVICgfz33w==(/figma)--&gt;&quot;&gt;&lt;/span&gt;&lt;span style=&quot;&quot;&gt;Week6 - The Reflective Practitioner - Donald A. Schonl&lt;br&gt;By Yunting Zhao&lt;/span&gt;" style="rounded=1;whiteSpace=wrap;html=1;" vertex="1" parent="1">
                    <mxGeometry x="1080" y="50" width="580" height="60" as="geometry"/>
                </mxCell>
            </root>
        </mxGraphModel>
    </diagram>
</mxfile>